<?xml version="1.0" encoding="UTF-8" standalone="no"?>
<!-- Created with Inkscape (http://www.inkscape.org/) -->

<svg
   xmlns:dc="http://purl.org/dc/elements/1.1/"
   xmlns:cc="http://creativecommons.org/ns#"
   xmlns:rdf="http://www.w3.org/1999/02/22-rdf-syntax-ns#"
   xmlns:svg="http://www.w3.org/2000/svg"
   xmlns="http://www.w3.org/2000/svg"
   xmlns:sodipodi="http://sodipodi.sourceforge.net/DTD/sodipodi-0.dtd"
   xmlns:inkscape="http://www.inkscape.org/namespaces/inkscape"
   width="48px"
   height="48px"
   id="svg3025"
   version="1.1"
   inkscape:version="0.48.2 r9819"
   sodipodi:docname="Nuovo documento 5">
  <defs
     id="defs3027" />
  <sodipodi:namedview
     id="base"
     pagecolor="#ffffff"
     bordercolor="#666666"
     borderopacity="1.0"
     inkscape:pageopacity="0.0"
     inkscape:pageshadow="2"
     inkscape:zoom="14"
     inkscape:cx="11.714286"
     inkscape:cy="24"
     inkscape:current-layer="layer1"
     showgrid="true"
     inkscape:grid-bbox="true"
     inkscape:document-units="px"
     inkscape:window-width="1440"
     inkscape:window-height="838"
     inkscape:window-x="-8"
     inkscape:window-y="-8"
     inkscape:window-maximized="1" />
  <metadata
     id="metadata3030">
    <rdf:RDF>
      <cc:Work
         rdf:about="">
        <dc:format>image/svg+xml</dc:format>
        <dc:type
           rdf:resource="http://purl.org/dc/dcmitype/StillImage" />
        <dc:title></dc:title>
      </cc:Work>
    </rdf:RDF>
  </metadata>
  <g
     id="layer1"
     inkscape:label="Layer 1"
     inkscape:groupmode="layer">
    <path
       sodipodi:type="arc"
       style="fill:#ff0000;fill-opacity:0;stroke:#2d5016;stroke-width:0.34945509;stroke-opacity:1"
       id="path3033"
       sodipodi:cx="19.142857"
       sodipodi:cy="30.964285"
       sodipodi:rx="4.8571429"
       sodipodi:ry="4.9642859"
       d="m 24,30.964285 a 4.8571429,4.9642859 0 1 1 -9.714286,0 4.8571429,4.9642859 0 1 1 9.714286,0 z"
       transform="matrix(2.9411764,0,0,2.7841726,-32.731091,-62.888486)" />
    <path
       sodipodi:type="arc"
       style="fill:#ffde10;fill-opacity:1;stroke:#f9f616;stroke-opacity:1"
       id="path3803"
       sodipodi:cx="13.357142"
       sodipodi:cy="6.7857141"
       sodipodi:rx="1.2142857"
       sodipodi:ry="1.0714285"
       d="m 14.571428,6.7857141 a 1.2142857,1.0714285 0 1 1 -2.428571,0 1.2142857,1.0714285 0 1 1 2.428571,0 z"
       transform="translate(10.285715,2.7857143)" />
    <path
       sodipodi:type="arc"
       style="fill:#ffde10;fill-opacity:1;stroke:#f9f616;stroke-opacity:1"
       id="path3803-7"
       sodipodi:cx="13.357142"
       sodipodi:cy="6.7857141"
       sodipodi:rx="1.2142857"
       sodipodi:ry="1.0714285"
       d="m 14.571428,6.7857141 a 1.2142857,1.0714285 0 1 1 -2.428571,0 1.2142857,1.0714285 0 1 1 2.428571,0 z"
       transform="translate(19.000001,5.4285716)" />
    <path
       sodipodi:type="arc"
       style="fill:#ffde10;fill-opacity:1;stroke:#f9f616;stroke-opacity:1"
       id="path3803-4"
       sodipodi:cx="13.357142"
       sodipodi:cy="6.7857141"
       sodipodi:rx="1.2142857"
       sodipodi:ry="1.0714285"
       d="m 14.571428,6.7857141 a 1.2142857,1.0714285 0 1 1 -2.428571,0 1.2142857,1.0714285 0 1 1 2.428571,0 z"
       transform="translate(1.6428576,5.6428571)" />
    <path
       sodipodi:type="arc"
       style="fill:#ffde10;fill-opacity:1;stroke:#f9f616;stroke-opacity:1"
       id="path3803-0"
       sodipodi:cx="13.357142"
       sodipodi:cy="6.7857141"
       sodipodi:rx="1.2142857"
       sodipodi:ry="1.0714285"
       d="m 14.571428,6.7857141 a 1.2142857,1.0714285 0 1 1 -2.428571,0 1.2142857,1.0714285 0 1 1 2.428571,0 z"
       transform="translate(-2.8571427,11.142857)" />
    <path
       sodipodi:type="arc"
       style="fill:#ffde10;fill-opacity:1;stroke:#f9f616;stroke-opacity:1"
       id="path3803-9"
       sodipodi:cx="13.357142"
       sodipodi:cy="6.7857141"
       sodipodi:rx="1.2142857"
       sodipodi:ry="1.0714285"
       d="m 14.571428,6.7857141 a 1.2142857,1.0714285 0 1 1 -2.428571,0 1.2142857,1.0714285 0 1 1 2.428571,0 z"
       transform="translate(-4.2142856,18.071429)" />
    <path
       sodipodi:type="arc"
       style="fill:#ffde10;fill-opacity:1;stroke:#f9f616;stroke-opacity:1"
       id="path3803-48"
       sodipodi:cx="13.357142"
       sodipodi:cy="6.7857141"
       sodipodi:rx="1.2142857"
       sodipodi:ry="1.0714285"
       d="m 14.571428,6.7857141 a 1.2142857,1.0714285 0 1 1 -2.428571,0 1.2142857,1.0714285 0 1 1 2.428571,0 z"
       transform="translate(-1.2857137,25.071429)" />
    <path
       sodipodi:type="arc"
       style="fill:#ffde10;fill-opacity:1;stroke:#f9f616;stroke-opacity:1"
       id="path3803-8"
       sodipodi:cx="13.357142"
       sodipodi:cy="6.7857141"
       sodipodi:rx="1.2142857"
       sodipodi:ry="1.0714285"
       d="m 14.571428,6.7857141 a 1.2142857,1.0714285 0 1 1 -2.428571,0 1.2142857,1.0714285 0 1 1 2.428571,0 z"
       transform="translate(4.0714288,28.785715)" />
    <path
       sodipodi:type="arc"
       style="fill:#ffde10;fill-opacity:1;stroke:#f9f616;stroke-opacity:1"
       id="path3803-2"
       sodipodi:cx="13.357142"
       sodipodi:cy="6.7857141"
       sodipodi:rx="1.2142857"
       sodipodi:ry="1.0714285"
       d="m 14.571428,6.7857141 a 1.2142857,1.0714285 0 1 1 -2.428571,0 1.2142857,1.0714285 0 1 1 2.428571,0 z"
       transform="translate(10.428572,30.285715)" />
    <path
       sodipodi:type="arc"
       style="fill:#ffde10;fill-opacity:1;stroke:#f9f616;stroke-opacity:1"
       id="path3803-45"
       sodipodi:cx="13.357142"
       sodipodi:cy="6.7857141"
       sodipodi:rx="1.2142857"
       sodipodi:ry="1.0714285"
       d="m 14.571428,6.7857141 a 1.2142857,1.0714285 0 1 1 -2.428571,0 1.2142857,1.0714285 0 1 1 2.428571,0 z"
       transform="translate(18.357144,28)" />
    <path
       sodipodi:type="arc"
       style="fill:#ffde10;fill-opacity:1;stroke:#f9f616;stroke-opacity:1"
       id="path3803-5"
       sodipodi:cx="13.357142"
       sodipodi:cy="6.7857141"
       sodipodi:rx="1.2142857"
       sodipodi:ry="1.0714285"
       d="m 14.571428,6.7857141 a 1.2142857,1.0714285 0 1 1 -2.428571,0 1.2142857,1.0714285 0 1 1 2.428571,0 z"
       transform="translate(22.571429,23.142857)" />
    <path
       sodipodi:type="arc"
       style="fill:#ffde10;fill-opacity:1;stroke:#f9f616;stroke-opacity:1"
       id="path3803-1"
       sodipodi:cx="13.357142"
       sodipodi:cy="6.7857141"
       sodipodi:rx="1.2142857"
       sodipodi:ry="1.0714285"
       d="m 14.571428,6.7857141 a 1.2142857,1.0714285 0 1 1 -2.428571,0 1.2142857,1.0714285 0 1 1 2.428571,0 z"
       transform="translate(24.428572,16.857143)" />
    <path
       sodipodi:type="arc"
       style="fill:#ffde10;fill-opacity:1;stroke:#f9f616;stroke-opacity:1"
       id="path3803-71"
       sodipodi:cx="13.357142"
       sodipodi:cy="6.7857141"
       sodipodi:rx="1.2142857"
       sodipodi:ry="1.0714285"
       d="m 14.571428,6.7857141 a 1.2142857,1.0714285 0 1 1 -2.428571,0 1.2142857,1.0714285 0 1 1 2.428571,0 z"
       transform="translate(23.000001,10.285714)" />
  </g>
</svg>
