<?xml version="1.0" encoding="UTF-8" standalone="no"?>
<!-- Created with Inkscape (http://www.inkscape.org/) -->

<svg
   xmlns:dc="http://purl.org/dc/elements/1.1/"
   xmlns:cc="http://creativecommons.org/ns#"
   xmlns:rdf="http://www.w3.org/1999/02/22-rdf-syntax-ns#"
   xmlns:svg="http://www.w3.org/2000/svg"
   xmlns="http://www.w3.org/2000/svg"
   xmlns:sodipodi="http://sodipodi.sourceforge.net/DTD/sodipodi-0.dtd"
   xmlns:inkscape="http://www.inkscape.org/namespaces/inkscape"
   width="48px"
   height="48px"
   id="svg2985"
   version="1.1"
   inkscape:version="0.48.2 r9819"
   sodipodi:docname="Nuovo documento 2">
  <defs
     id="defs2987" />
  <sodipodi:namedview
     id="base"
     pagecolor="#ffffff"
     bordercolor="#666666"
     borderopacity="1.0"
     inkscape:pageopacity="0.0"
     inkscape:pageshadow="2"
     inkscape:zoom="9.8994949"
     inkscape:cx="24"
     inkscape:cy="24"
     inkscape:current-layer="layer1"
     showgrid="true"
     inkscape:grid-bbox="true"
     inkscape:document-units="px"
     inkscape:window-width="1440"
     inkscape:window-height="838"
     inkscape:window-x="-8"
     inkscape:window-y="-8"
     inkscape:window-maximized="1" />
  <metadata
     id="metadata2990">
    <rdf:RDF>
      <cc:Work
         rdf:about="">
        <dc:format>image/svg+xml</dc:format>
        <dc:type
           rdf:resource="http://purl.org/dc/dcmitype/StillImage" />
        <dc:title></dc:title>
      </cc:Work>
    </rdf:RDF>
  </metadata>
  <g
     id="layer1"
     inkscape:label="Layer 1"
     inkscape:groupmode="layer">
    <path
       sodipodi:type="star"
       style="fill:#ffff00;fill-rule:evenodd;stroke:#000000;stroke-width:0.91052306px;stroke-linecap:butt;stroke-linejoin:miter;stroke-opacity:1"
       id="path2993"
       sodipodi:sides="3"
       sodipodi:cx="17.67767"
       sodipodi:cy="19.008621"
       sodipodi:r1="16.288219"
       sodipodi:r2="8.1441097"
       sodipodi:arg1="0.51914611"
       sodipodi:arg2="1.5663437"
       inkscape:flatsided="true"
       inkscape:rounded="0"
       inkscape:randomized="0"
       d="M 31.819804,27.089841 3.6080604,27.215459 17.605144,2.7205632 z"
       inkscape:transform-center-x="-0.036262845"
       inkscape:transform-center-y="-4.8737689"
       transform="matrix(1,0,0,1.2061966,6.5659916,3.8837005)" />
    <path
       style="fill:#000000;stroke:none"
       d="M 11.100002,36.071558 C 11.474947,35.120354 24.161313,8.5450243 24.214328,8.5997411 24.354807,8.7447302 37.455494,35.912804 37.407887,35.960411 c -0.02628,0.02628 -4.951625,0.06912 -10.945218,0.09521 -5.993594,0.02609 -11.91289,0.06768 -13.153992,0.09241 -1.731635,0.03451 -2.245413,0.01672 -2.208675,-0.07648 l 0,0 z"
       id="path2997"
       inkscape:connector-curvature="0" />
    <path
       style="fill:#000000"
       d="m 11.198504,35.984189 c 0.263622,-0.637881 6.53095,-13.80938 9.821595,-20.641196 1.150703,-2.389011 2.324986,-4.832318 2.609517,-5.4295702 0.284532,-0.5972527 0.543069,-1.085914 0.574525,-1.085914 0.07172,0 5.404934,10.9651682 9.777177,20.1020352 l 3.311194,6.919545 -2.883438,0.06212 c -1.585891,0.03416 -7.469605,0.09496 -13.074921,0.135099 -8.490261,0.0608 -10.182163,0.05043 -10.135649,-0.06212 l 0,0 z"
       id="path2999"
       inkscape:connector-curvature="0" />
    <path
       style="fill:#000000"
       d="m 11.171063,36.075103 c 0,-0.118482 7.013735,-14.878619 10.403508,-21.893786 0.899347,-1.861206 1.842595,-3.827215 2.096107,-4.3689095 0.253512,-0.5416943 0.490252,-0.9848987 0.52609,-0.9848987 0.07819,0 5.198533,10.5160222 9.787854,20.1020352 l 3.312744,6.919545 -2.835358,0.06241 c -3.770948,0.08301 -23.290945,0.22012 -23.290945,0.163601 z"
       id="path3001"
       inkscape:connector-curvature="0" />
    <path
       style="fill:#000000"
       d="m 11.171063,36.076085 c 0,-0.113682 5.302153,-11.286953 9.646918,-20.329031 1.09454,-2.277894 2.288313,-4.766658 2.652829,-5.530585 0.364516,-0.7639283 0.692116,-1.3889602 0.728,-1.3889602 0.07806,0 5.295863,10.7152582 9.837894,20.2030512 l 3.264192,6.818529 -2.837123,0.06258 c -3.785311,0.08349 -23.29271,0.221192 -23.29271,0.164416 z"
       id="path3003"
       inkscape:connector-curvature="0" />
  </g>
</svg>
