<?xml version="1.0" encoding="UTF-8" standalone="no"?>
<!-- Created with Inkscape (http://www.inkscape.org/) -->

<svg
   xmlns:dc="http://purl.org/dc/elements/1.1/"
   xmlns:cc="http://creativecommons.org/ns#"
   xmlns:rdf="http://www.w3.org/1999/02/22-rdf-syntax-ns#"
   xmlns:svg="http://www.w3.org/2000/svg"
   xmlns="http://www.w3.org/2000/svg"
   xmlns:sodipodi="http://sodipodi.sourceforge.net/DTD/sodipodi-0.dtd"
   xmlns:inkscape="http://www.inkscape.org/namespaces/inkscape"
   width="48px"
   height="48px"
   id="svg2985"
   version="1.1"
   inkscape:version="0.48.2 r9819"
   sodipodi:docname="Nuovo documento 2">
  <defs
     id="defs2987" />
  <sodipodi:namedview
     id="base"
     pagecolor="#ffffff"
     bordercolor="#666666"
     borderopacity="1.0"
     inkscape:pageopacity="0.0"
     inkscape:pageshadow="2"
     inkscape:zoom="9.8994949"
     inkscape:cx="24"
     inkscape:cy="24"
     inkscape:current-layer="layer1"
     showgrid="true"
     inkscape:grid-bbox="true"
     inkscape:document-units="px"
     inkscape:window-width="1440"
     inkscape:window-height="838"
     inkscape:window-x="-8"
     inkscape:window-y="-8"
     inkscape:window-maximized="1" />
  <metadata
     id="metadata2990">
    <rdf:RDF>
      <cc:Work
         rdf:about="">
        <dc:format>image/svg+xml</dc:format>
        <dc:type
           rdf:resource="http://purl.org/dc/dcmitype/StillImage" />
        <dc:title></dc:title>
      </cc:Work>
    </rdf:RDF>
  </metadata>
  <g
     id="layer1"
     inkscape:label="Layer 1"
     inkscape:groupmode="layer">
    <path
       sodipodi:type="arc"
       style="fill:none;stroke:#000000;stroke-width:0.69446236;stroke-linejoin:miter;stroke-opacity:1"
       id="path2993"
       sodipodi:cx="23.486046"
       sodipodi:cy="25.524105"
       sodipodi:rx="6.111423"
       sodipodi:ry="8.9398499"
       d="m 29.597469,25.524105 a 6.111423,8.9398499 0 1 1 -12.222846,0 6.111423,8.9398499 0 1 1 12.222846,0 z"
       transform="matrix(1.5041322,0,0,1.3785311,-12.799717,-11.73248)" />
    <path
       sodipodi:type="arc"
       style="fill:none;stroke:#000000;stroke-width:2.83246517;stroke-linejoin:miter;stroke-opacity:1"
       id="path2995"
       sodipodi:cx="4.3436561"
       sodipodi:cy="14.664966"
       sodipodi:rx="1.3131983"
       sodipodi:ry="9.79848"
       d="m 5.6568544,14.664966 a 1.3131983,9.79848 0 1 1 -2.6263967,0 1.3131983,9.79848 0 1 1 2.6263967,0 z"
       transform="matrix(0.1861521,-0.22087114,0.31144237,0.30005154,5.533775,8.8502499)" />
    <path
       sodipodi:type="arc"
       style="fill:none;stroke:#000000;stroke-width:2.56566548;stroke-linejoin:miter;stroke-opacity:1"
       id="path2995-1"
       sodipodi:cx="4.3436561"
       sodipodi:cy="14.664966"
       sodipodi:rx="1.3131983"
       sodipodi:ry="9.79848"
       d="m 5.6568544,14.664966 a 1.3131983,9.79848 0 1 1 -2.6263967,0 1.3131983,9.79848 0 1 1 2.6263967,0 z"
       transform="matrix(0.29605346,-0.11119176,0.22097437,0.43013934,10.979306,0.70823839)"
       inkscape:transform-center-x="-1.0848644" />
    <path
       sodipodi:type="arc"
       style="fill:none;stroke:#000000;stroke-width:2.55395246;stroke-linejoin:miter;stroke-opacity:1"
       id="path2995-1-7"
       sodipodi:cx="4.3436561"
       sodipodi:cy="14.664966"
       sodipodi:rx="1.3131983"
       sodipodi:ry="9.79848"
       d="m 5.6568544,14.664966 a 1.3131983,9.79848 0 1 1 -2.6263967,0 1.3131983,9.79848 0 1 1 2.6263967,0 z"
       transform="matrix(0.32848099,-0.12051344,0.00144085,0.46619976,21.280494,-0.94177174)" />
    <path
       sodipodi:type="arc"
       style="fill:none;stroke:#000000;stroke-width:2.59227395;stroke-linejoin:miter;stroke-opacity:1"
       id="path2995-1-7-4"
       sodipodi:cx="4.3436561"
       sodipodi:cy="14.664966"
       sodipodi:rx="1.3131983"
       sodipodi:ry="9.79848"
       d="m 5.6568544,14.664966 a 1.3131983,9.79848 0 1 1 -2.6263967,0 1.3131983,9.79848 0 1 1 2.6263967,0 z"
       transform="matrix(0.40030083,-0.059175,-0.26657063,0.41115683,32.842792,2.0600226)"
       inkscape:transform-center-x="1.8389456"
       inkscape:transform-center-y="0.4196785" />
    <path
       sodipodi:type="arc"
       style="fill:none;stroke:#000000;stroke-width:3.30688143;stroke-linejoin:miter;stroke-opacity:1"
       id="path2995-1-7-4-0"
       sodipodi:cx="4.3436561"
       sodipodi:cy="14.664966"
       sodipodi:rx="1.3131983"
       sodipodi:ry="9.79848"
       d="m 5.6568544,14.664966 a 1.3131983,9.79848 0 1 1 -2.6263967,0 1.3131983,9.79848 0 1 1 2.6263967,0 z"
       transform="matrix(0.32312383,0.03543714,-0.29245021,0.25093166,38.093581,10.593853)"
       inkscape:transform-center-x="1.5151311"
       inkscape:transform-center-y="-0.053622683" />
    <path
       sodipodi:type="arc"
       style="fill:none;stroke:#000000;stroke-width:3.30688143;stroke-linejoin:miter;stroke-opacity:1"
       id="path2995-1-7-4-0-9"
       sodipodi:cx="4.3436561"
       sodipodi:cy="14.664966"
       sodipodi:rx="1.3131983"
       sodipodi:ry="9.79848"
       d="m 5.6568544,14.664966 a 1.3131983,9.79848 0 1 1 -2.6263967,0 1.3131983,9.79848 0 1 1 2.6263967,0 z"
       transform="matrix(0.29118599,0.14448363,-0.36094769,0.13494662,40.90905,19.116339)"
       inkscape:transform-center-x="1.4041083"
       inkscape:transform-center-y="-0.57181886" />
    <path
       sodipodi:type="arc"
       style="fill:none;stroke:#000000;stroke-width:3.30688143;stroke-linejoin:miter;stroke-opacity:1"
       id="path2995-1-7-4-0-4"
       sodipodi:cx="4.3436561"
       sodipodi:cy="14.664966"
       sodipodi:rx="1.3131983"
       sodipodi:ry="9.79848"
       d="m 5.6568544,14.664966 a 1.3131983,9.79848 0 1 1 -2.6263967,0 1.3131983,9.79848 0 1 1 2.6263967,0 z"
       transform="matrix(0.09201302,0.31176659,-0.3443577,-0.17294971,13.206323,21.149247)"
       inkscape:transform-center-x="0.53527343"
       inkscape:transform-center-y="-1.4184433" />
    <path
       sodipodi:type="arc"
       style="fill:#000000;stroke:#000000;stroke-width:1.72685802;stroke-linejoin:miter;stroke-opacity:1"
       id="path2993-8"
       sodipodi:cx="23.486046"
       sodipodi:cy="25.524105"
       sodipodi:rx="6.111423"
       sodipodi:ry="8.9398499"
       d="m 29.597469,25.524105 a 6.111423,8.9398499 0 1 1 -12.222846,0 6.111423,8.9398499 0 1 1 12.222846,0 z"
       transform="matrix(1.0413223,0,0,0.32203391,-1.829126,28.416157)" />
    <path
       sodipodi:type="arc"
       style="fill:#000000;stroke:#000000;stroke-width:1.72685802;stroke-linejoin:miter;stroke-opacity:1"
       id="path2993-8-8"
       sodipodi:cx="23.486046"
       sodipodi:cy="25.524105"
       sodipodi:rx="6.111423"
       sodipodi:ry="8.9398499"
       d="m 29.597469,25.524105 a 6.111423,8.9398499 0 1 1 -12.222846,0 6.111423,8.9398499 0 1 1 12.222846,0 z"
       transform="matrix(1.0413223,0,0,0.32203391,-1.9301415,32.204229)" />
    <path
       sodipodi:type="arc"
       style="fill:#000000;stroke:#000000;stroke-width:1.72685802;stroke-linejoin:miter;stroke-opacity:1"
       id="path2993-8-2"
       sodipodi:cx="23.486046"
       sodipodi:cy="25.524105"
       sodipodi:rx="6.111423"
       sodipodi:ry="8.9398499"
       d="m 29.597469,25.524105 a 6.111423,8.9398499 0 1 1 -12.222846,0 6.111423,8.9398499 0 1 1 12.222846,0 z"
       transform="matrix(1.0413223,0,0,0.32203391,-1.8291262,35.739763)" />
  </g>
</svg>
