<?xml version="1.0" encoding="UTF-8" standalone="no"?>
<!-- Created with Inkscape (http://www.inkscape.org/) -->

<svg
   xmlns:svg="http://www.w3.org/2000/svg"
   xmlns="http://www.w3.org/2000/svg"
   version="1.1"
   width="48"
   height="48"
   id="svg2816">
  <defs
     id="defs2818" />
  <g
     id="layer1">
    <path
       d="m 41.071428,33.642857 a 13.821428,5.8571429 0 1 1 -27.642856,0 13.821428,5.8571429 0 1 1 27.642856,0 z"
       transform="matrix(1.2299742,0,0,1.2621951,-8.9453678,-4.2138501)"
       id="path3356"
       style="fill:#000000" />
    <path
       d="m 28.428571,24.357143 a 4.7142859,3.1428571 0 1 1 -9.428572,0 4.7142859,3.1428571 0 1 1 9.428572,0 z"
       transform="matrix(1,0,0,2.2840909,0.85714286,-27.455359)"
       id="path3360"
       style="fill:#000000" />
    <path
       d="m 29.285715,13 a 3.5,11.857142 0 1 1 -7,0 3.5,11.857142 0 1 1 7,0 z"
       transform="translate(-1.2857142,0.85714287)"
       id="path3362"
       style="fill:#000000" />
  </g>
</svg>
