<?xml version="1.0" encoding="UTF-8" standalone="no"?>
<!-- Created with Inkscape (http://www.inkscape.org/) -->

<svg
   xmlns:dc="http://purl.org/dc/elements/1.1/"
   xmlns:cc="http://creativecommons.org/ns#"
   xmlns:rdf="http://www.w3.org/1999/02/22-rdf-syntax-ns#"
   xmlns:svg="http://www.w3.org/2000/svg"
   xmlns="http://www.w3.org/2000/svg"
   xmlns:sodipodi="http://sodipodi.sourceforge.net/DTD/sodipodi-0.dtd"
   xmlns:inkscape="http://www.inkscape.org/namespaces/inkscape"
   width="48px"
   height="48px"
   id="svg3661"
   version="1.1"
   inkscape:version="0.48.2 r9819"
   sodipodi:docname="Nuovo documento 16">
  <defs
     id="defs3663" />
  <sodipodi:namedview
     id="base"
     pagecolor="#ffffff"
     bordercolor="#666666"
     borderopacity="1.0"
     inkscape:pageopacity="0.0"
     inkscape:pageshadow="2"
     inkscape:zoom="9.8994949"
     inkscape:cx="24"
     inkscape:cy="22.966367"
     inkscape:current-layer="layer1"
     showgrid="true"
     inkscape:grid-bbox="true"
     inkscape:document-units="px"
     inkscape:window-width="1440"
     inkscape:window-height="838"
     inkscape:window-x="-8"
     inkscape:window-y="-8"
     inkscape:window-maximized="1" />
  <metadata
     id="metadata3666">
    <rdf:RDF>
      <cc:Work
         rdf:about="">
        <dc:format>image/svg+xml</dc:format>
        <dc:type
           rdf:resource="http://purl.org/dc/dcmitype/StillImage" />
        <dc:title></dc:title>
      </cc:Work>
    </rdf:RDF>
  </metadata>
  <g
     id="layer1"
     inkscape:label="Layer 1"
     inkscape:groupmode="layer">
    <path
       style="fill:none;stroke:#000000;stroke-width:0.99999994px;stroke-linecap:butt;stroke-linejoin:miter;stroke-opacity:1"
       d="m 3.9395943,41.63604 5.59783,-16.020952 12.1577857,-4.892628 7.959413,5.660098 -9.796201,14.96568 z"
       id="path3669"
       inkscape:connector-curvature="0" />
    <path
       style="fill:none;stroke:#000000;stroke-width:0.99999994px;stroke-linecap:butt;stroke-linejoin:miter;stroke-opacity:1"
       d="M 5.6391512,40.405829 16.723215,29.985222"
       id="path3671"
       inkscape:connector-curvature="0" />
    <path
       sodipodi:type="arc"
       style="fill:#ffffff;stroke:#000000;stroke-width:1.17499971000000000;stroke-linejoin:miter;stroke-opacity:1"
       id="path3673"
       sodipodi:cx="36.314983"
       sodipodi:cy="11.634508"
       sodipodi:rx="7.9296975"
       sodipodi:ry="4.7477169"
       d="m 44.244681,11.634508 a 7.9296975,4.7477169 0 1 1 -15.859395,0 7.9296975,4.7477169 0 1 1 15.859395,0 z"
       transform="matrix(0.83388185,0.55992718,-0.41366495,0.59083632,2.6701838,-5.8340888)" />
    <path
       sodipodi:type="arc"
       style="fill:#ffffff;stroke:#000000;stroke-linejoin:miter;stroke-opacity:1"
       id="path3675"
       sodipodi:cx="22.829447"
       sodipodi:cy="23.453293"
       sodipodi:rx="10.707617"
       sodipodi:ry="21.112188"
       d="m 33.537064,23.453293 a 10.707617,21.112188 0 1 1 -21.415234,0 10.707617,21.112188 0 1 1 21.415234,0 z"
       transform="matrix(0.72979269,0.6836685,-0.6836685,0.72979269,41.395859,-27.251238)" />
    <path
       style="fill:#800000;fill-opacity:1;stroke:#000000;stroke-width:1;stroke-linejoin:miter;stroke-opacity:1"
       d="m 29.916616,21.917371 c -1.493307,-0.214272 -2.6774,-0.745628 -3.584331,-1.608453 -1.356689,-1.290712 -1.93574,-3.256644 -1.709377,-5.803493 0.355271,-3.997222 2.797014,-8.9944405 6.612801,-13.53362561 4.178383,-4.97052089 9.578553,-8.97905959 14.616594,-10.84987779 4.798204,-1.7817566 8.635613,-1.4561476 10.636507,0.9025211 1.004836,1.1845086 1.419814,2.7435169 1.321001,4.96281 -0.06685,1.5013924 -0.199912,2.2097403 -0.727605,3.87337889 C 54.205889,8.9286488 43.877519,18.91141 34.780773,21.415811 c -1.596933,0.439648 -3.749067,0.661561 -4.864157,0.50156 z"
       id="path3677"
       inkscape:connector-curvature="0" />
    <path
       style="fill:#ffff00;fill-opacity:1;stroke:#000000;stroke-width:1;stroke-linejoin:miter;stroke-opacity:1"
       d="m 31.525636,25.953491 c -2.699754,-0.623471 -5.612693,-2.326082 -7.677805,-4.487672 -2.87197,-3.006143 -2.665601,-5.146153 0.455215,-4.720498 0.416688,0.05683 0.773992,0.11957 0.794009,0.139416 0.02002,0.01985 0.100623,0.34548 0.179124,0.723631 0.758819,3.655338 3.49758,5.623919 7.61145,5.471 l 0.961358,-0.03574 0.277105,0.555584 c 0.553385,1.109516 0.414623,1.948125 -0.377088,2.278922 -0.331715,0.1386 -1.742459,0.186412 -2.223368,0.07535 z"
       id="path3679"
       inkscape:connector-curvature="0" />
    <path
       style="fill:#c83737;fill-opacity:1;stroke:#000000;stroke-width:1;stroke-linejoin:miter;stroke-opacity:1"
       d="M 4.9052166,40.544525 C 5.0131787,40.252844 6.1952992,36.88058 7.5321513,33.050605 8.8690032,29.22063 9.9773776,26.072428 9.9952054,26.0546 10.013033,26.03677 12.631692,24.973551 15.814447,23.691887 l 5.786827,-2.330299 0.702567,0.484409 c 0.386411,0.266426 1.097299,0.826713 1.57975,1.245084 1.096335,0.950715 1.919382,1.537834 3.149664,2.246805 1.349502,0.777675 1.816875,1.116672 1.760666,1.277057 -0.06421,0.183214 -9.017636,13.864811 -9.19298,14.047653 -0.113487,0.118341 -1.313614,0.165736 -6.884805,0.271893 -3.7110475,0.07071 -7.0308263,0.131223 -7.3772865,0.134467 l -0.6299276,0.0059 0.1962947,-0.53033 z m 6.0133084,-4.329534 c 2.666802,-2.505793 5.158836,-4.85406 5.537854,-5.21837 l 0.689121,-0.662382 -0.390323,-0.390323 -0.390324,-0.390324 -5.563435,5.227659 -5.5634344,5.227658 0.3065417,0.381451 c 0.1685979,0.209797 0.3557548,0.381263 0.4159044,0.381034 0.060149,-2.28e-4 2.2912921,-2.050609 4.9580953,-4.556403 z"
       id="path3681"
       inkscape:connector-curvature="0" />
    <path
       style="fill:none;stroke:#000000;stroke-width:1px;stroke-linecap:butt;stroke-linejoin:miter;stroke-opacity:1"
       d="m 3.8385797,42.949237 c 0.1683587,0.06734 0.348449,0.110665 0.5050762,0.202031 0.5897321,-0.191431 0.5279562,0.419314 0.8081221,0.606091 0.062647,0.04176 0.1393835,0.05925 0.2020305,0.101016 0.039621,0.02641 0.061394,0.0746 0.1010152,0.101015 0.062647,0.04176 0.1393835,0.05925 0.2020306,0.101015 0.2311535,0.154102 -0.063164,0.07996 0.3030457,0.202031 0.031944,0.01065 0.067343,0 0.1010153,0 0.033672,0.03367 0.058424,0.07972 0.1010152,0.101015 0.030117,0.01506 0.077206,-0.02381 0.1010153,0 0.02381,0.02381 -0.023809,0.07721 0,0.101015 0.047619,0.04762 0.1544114,-0.04762 0.2020305,0 0.023809,0.02381 -0.023809,0.07721 0,0.101015 0.023809,0.02381 0.070898,-0.01506 0.1010152,0 0.042592,0.0213 0.058423,0.07972 0.1010153,0.101016 0.030117,0.01506 0.070898,-0.01506 0.1010153,0 0.042592,0.0213 0.058423,0.07972 0.1010152,0.101015 0.030117,0.01506 0.069071,-0.01065 0.1010153,0 0.071429,0.02381 0.134687,0.06734 0.2020305,0.101015 0.067343,0.03367 0.1417966,0.05584 0.2020305,0.101015 0.076191,0.05714 0.1168469,0.159439 0.2020305,0.202031 0.060234,0.03012 0.1395036,-0.02501 0.2020305,0 0.2501785,-0.056 0.2534764,0.227753 0.404061,0.303046 0.030117,0.01506 0.070898,-0.01506 0.1010153,0 0.042592,0.0213 0.05584,0.08596 0.1010152,0.101015 0.063888,0.0213 0.1366977,-0.01633 0.2020305,0 0.073044,0.01826 0.1321234,0.07305 0.2020305,0.101015 0.098864,0.03955 0.2041821,0.06147 0.3030458,0.101015 0.069907,0.02796 0.1289862,0.08275 0.2020305,0.101016 0.065333,0.01633 0.1356033,-0.01107 0.2020305,0 0.2536806,0.04228 0.4669174,0.121967 0.7071071,0.20203 0.101015,0.03367 0.198634,0.08013 0.303045,0.101015 0.06604,0.01321 0.136698,-0.01633 0.202031,0 0.07304,0.01826 0.1282,0.08625 0.20203,0.101016 0.198108,0.03962 0.407985,-0.03962 0.606092,0 0.07383,0.01477 0.134687,0.06734 0.202031,0.101015 0.101015,0.03367 0.198015,0.08351 0.303045,0.101015 0.199129,0.03319 0.406964,-0.03319 0.606092,0 0.10503,0.0175 0.198015,0.08351 0.303046,0.101015 0.199281,0.03321 0.406809,-0.03321 0.606091,0 0.210061,0.03501 0.397268,0.160266 0.606092,0.202031 0.06603,0.01321 0.135603,-0.01107 0.20203,0 0.136943,0.02282 0.270571,0.06288 0.404061,0.101015 0.102383,0.02925 0.198015,0.08351 0.303046,0.101015 0.232495,0.03875 0.473225,-0.02923 0.707107,0 0.13776,0.01722 0.266078,0.08568 0.404061,0.101016 0.167329,0.01859 0.337553,-0.01675 0.505076,0 0.170841,0.01708 0.334235,0.08393 0.505076,0.101015 0.167523,0.01675 0.337748,-0.01859 0.505077,0 0.137983,0.01533 0.265799,0.08845 0.404061,0.101015 0.368868,0.03353 0.740778,0 1.111167,0 0.134687,0 0.270043,-0.0134 0.404061,0 0.203801,0.02038 0.402527,0.0784 0.606092,0.101015 0.200795,0.02231 0.404061,0 0.606091,0 0.336718,0 0.673435,0 1.010153,0 0.336717,0 0.673435,0 1.010153,0 0.134687,0 0.269374,0 0.404061,0 0.101015,0 0.202648,0.01116 0.303045,0 0.203565,-0.02262 0.402527,-0.0784 0.606092,-0.101015 0.100397,-0.01116 0.20281,0.01253 0.303046,0 0.170367,-0.0213 0.336717,-0.06734 0.505076,-0.101015 0.168359,-0.03367 0.33851,-0.05937 0.505076,-0.101015 0.37964,-0.09491 0.747325,-0.26762 1.111168,-0.404061 0.1994,-0.07478 0.401326,-0.143527 0.606091,-0.202031 0.133491,-0.03814 0.274069,-0.05227 0.404061,-0.101015 0.281994,-0.105748 0.531304,-0.285425 0.808123,-0.404061 0.09787,-0.04194 0.200663,-0.07176 0.303045,-0.101015 0.133491,-0.03814 0.277195,-0.04463 0.404061,-0.101016 0.179417,-0.07974 0.333446,-0.207695 0.505077,-0.303045 0.193066,-0.201634 0.477743,-0.188364 0.707106,-0.303046 0.108588,-0.05429 0.2172,-0.116184 0.303046,-0.202031 0.152786,-0.152786 0.301323,-0.470256 0.505076,-0.606091 0.125294,-0.08353 0.278767,-0.118501 0.404061,-0.202031 0.07924,-0.05283 0.134687,-0.134687 0.202031,-0.20203 0.06734,-0.06734 0.134687,-0.134687 0.20203,-0.202031 0.06734,-0.06734 0.12584,-0.144887 0.202031,-0.20203 0.120468,-0.09035 0.297582,-0.09555 0.404061,-0.202031 0.05324,-0.05324 0.03837,-0.160266 0.101015,-0.20203 0.05603,-0.03736 0.148156,0.04041 0.202031,0 0.09712,-0.07284 0.104906,-0.230203 0.20203,-0.303046 0.05388,-0.04041 0.141797,0.03012 0.202031,0 0.08518,-0.04259 0.134687,-0.134687 0.20203,-0.20203 0.03367,-0.03367 0.07972,-0.05842 0.101015,-0.101016 0.01506,-0.03012 -0.01506,-0.0709 0,-0.101015 0.210201,-0.420401 -0.007,0.107989 0.202031,-0.101015 0.02381,-0.02381 -0.01506,-0.0709 0,-0.101016 0.120945,-0.24189 0.202031,0.06366 0.202031,-0.20203"
       id="path3683"
       inkscape:connector-curvature="0" />
  </g>
</svg>
