<?xml version="1.0" encoding="UTF-8" standalone="no"?>
<!-- Created with Inkscape (http://www.inkscape.org/) -->

<svg
   xmlns:dc="http://purl.org/dc/elements/1.1/"
   xmlns:cc="http://creativecommons.org/ns#"
   xmlns:rdf="http://www.w3.org/1999/02/22-rdf-syntax-ns#"
   xmlns:svg="http://www.w3.org/2000/svg"
   xmlns="http://www.w3.org/2000/svg"
   xmlns:sodipodi="http://sodipodi.sourceforge.net/DTD/sodipodi-0.dtd"
   xmlns:inkscape="http://www.inkscape.org/namespaces/inkscape"
   width="48px"
   height="48px"
   id="svg3911"
   version="1.1"
   inkscape:version="0.48.2 r9819"
   sodipodi:docname="Nuovo documento 9">
  <defs
     id="defs3913" />
  <sodipodi:namedview
     id="base"
     pagecolor="#ffffff"
     bordercolor="#666666"
     borderopacity="1.0"
     inkscape:pageopacity="0.0"
     inkscape:pageshadow="2"
     inkscape:zoom="9.8994949"
     inkscape:cx="24"
     inkscape:cy="24"
     inkscape:current-layer="layer1"
     showgrid="true"
     inkscape:grid-bbox="true"
     inkscape:document-units="px"
     inkscape:window-width="1440"
     inkscape:window-height="838"
     inkscape:window-x="-8"
     inkscape:window-y="-8"
     inkscape:window-maximized="1" />
  <metadata
     id="metadata3916">
    <rdf:RDF>
      <cc:Work
         rdf:about="">
        <dc:format>image/svg+xml</dc:format>
        <dc:type
           rdf:resource="http://purl.org/dc/dcmitype/StillImage" />
        <dc:title></dc:title>
      </cc:Work>
    </rdf:RDF>
  </metadata>
  <g
     id="layer1"
     inkscape:label="Layer 1"
     inkscape:groupmode="layer">
    <path
       style="fill:none;stroke:#000000;stroke-width:1px;stroke-linecap:butt;stroke-linejoin:miter;stroke-opacity:1"
       d="M 4.2430014,4.0738932 17.923856,43.899858"
       id="path3919"
       inkscape:connector-curvature="0" />
    <path
       style="fill:none;stroke:#000000;stroke-width:1px;stroke-linecap:butt;stroke-linejoin:miter;stroke-opacity:1"
       d="M 23.565164,3.2372649 37.246019,43.06323"
       id="path3919-5"
       inkscape:connector-curvature="0" />
    <path
       style="fill:none;stroke:#000000;stroke-width:1px;stroke-linecap:butt;stroke-linejoin:miter;stroke-opacity:1"
       d="M 18.413386,3.4392954 32.094241,43.265261"
       id="path3919-2"
       inkscape:connector-curvature="0" />
    <path
       style="fill:none;stroke:#000000;stroke-width:1px;stroke-linecap:butt;stroke-linejoin:miter;stroke-opacity:1"
       d="M 13.564654,3.6413259 27.245509,43.467292"
       id="path3919-7"
       inkscape:connector-curvature="0" />
    <path
       style="fill:none;stroke:#000000;stroke-width:1px;stroke-linecap:butt;stroke-linejoin:miter;stroke-opacity:1"
       d="M 8.7159224,3.7423412 22.396777,43.568307"
       id="path3919-6"
       inkscape:connector-curvature="0" />
    <path
       style="fill:none;stroke:#000000;stroke-width:1px;stroke-linecap:butt;stroke-linejoin:miter;stroke-opacity:1"
       d="M 28.615927,3.2372649 42.296782,43.06323"
       id="path3919-5-1"
       inkscape:connector-curvature="0" />
    <path
       style="fill:none;stroke:#000000;stroke-width:1px;stroke-linecap:butt;stroke-linejoin:miter;stroke-opacity:1"
       d="M 4.1416254,4.3614101 28.890363,3.7553185"
       id="path3978"
       inkscape:connector-curvature="0" />
    <path
       style="fill:none;stroke:#000000;stroke-width:1px;stroke-linecap:butt;stroke-linejoin:miter;stroke-opacity:1"
       d="M 8.7378192,16.685271 33.486558,16.07918"
       id="path3978-4"
       inkscape:connector-curvature="0" />
    <path
       style="fill:none;stroke:#000000;stroke-width:1px;stroke-linecap:butt;stroke-linejoin:miter;stroke-opacity:1"
       d="M 7.1215751,13.553798 31.870313,12.947707"
       id="path3978-2"
       inkscape:connector-curvature="0" />
    <path
       style="fill:none;stroke:#000000;stroke-width:1px;stroke-linecap:butt;stroke-linejoin:miter;stroke-opacity:1"
       d="M 6.2124378,10.32131 30.961176,9.7152189"
       id="path3978-3"
       inkscape:connector-curvature="0" />
    <path
       style="fill:none;stroke:#000000;stroke-width:1px;stroke-linecap:butt;stroke-linejoin:miter;stroke-opacity:1"
       d="M 5.0002548,7.2908523 29.748993,6.6847613"
       id="path3978-22"
       inkscape:connector-curvature="0" />
    <path
       style="fill:none;stroke:#000000;stroke-width:1px;stroke-linecap:butt;stroke-linejoin:miter;stroke-opacity:1"
       d="M 12.677414,29.110148 37.426153,28.504057"
       id="path3978-4-1"
       inkscape:connector-curvature="0" />
    <path
       style="fill:none;stroke:#000000;stroke-width:1px;stroke-linecap:butt;stroke-linejoin:miter;stroke-opacity:1"
       d="M 11.768277,25.978675 36.517016,25.372584"
       id="path3978-4-6"
       inkscape:connector-curvature="0" />
    <path
       style="fill:none;stroke:#000000;stroke-width:1px;stroke-linecap:butt;stroke-linejoin:miter;stroke-opacity:1"
       d="M 10.657109,22.746186 35.405848,22.140095"
       id="path3978-4-8"
       inkscape:connector-curvature="0" />
    <path
       style="fill:none;stroke:#000000;stroke-width:1px;stroke-linecap:butt;stroke-linejoin:miter;stroke-opacity:1"
       d="M 9.8489869,19.715729 34.597726,19.109638"
       id="path3978-4-5"
       inkscape:connector-curvature="0" />
    <path
       style="fill:none;stroke:#000000;stroke-width:1px;stroke-linecap:butt;stroke-linejoin:miter;stroke-opacity:1"
       d="M 13.586551,32.443651 38.33529,31.83756"
       id="path3978-4-7"
       inkscape:connector-curvature="0" />
    <path
       style="fill:none;stroke:#000000;stroke-width:1px;stroke-linecap:butt;stroke-linejoin:miter;stroke-opacity:1"
       d="M 15.101779,35.474109 39.850518,34.868018"
       id="path3978-4-61"
       inkscape:connector-curvature="0" />
    <path
       style="fill:none;stroke:#000000;stroke-width:1px;stroke-linecap:butt;stroke-linejoin:miter;stroke-opacity:1"
       d="M 15.707871,38.504565 40.45661,37.898474"
       id="path3978-4-89"
       inkscape:connector-curvature="0" />
    <path
       style="fill:none;stroke:#000000;stroke-width:1px;stroke-linecap:butt;stroke-linejoin:miter;stroke-opacity:1"
       d="M 16.515993,41.434008 41.264732,40.827917"
       id="path3978-4-2"
       inkscape:connector-curvature="0" />
    <path
       sodipodi:type="arc"
       style="fill:#11ff20;fill-opacity:1;stroke:#f9f616;stroke-opacity:1"
       id="path4086"
       sodipodi:cx="36.16346"
       sodipodi:cy="5.977654"
       sodipodi:rx="0.6060915"
       sodipodi:ry="0.70710677"
       d="m 36.769551,5.977654 a 0.6060915,0.70710677 0 1 1 -1.212183,0 0.6060915,0.70710677 0 1 1 1.212183,0 z"
       transform="translate(-26.162951,1.2121831)" />
    <path
       sodipodi:type="arc"
       style="fill:#11ff20;fill-opacity:1;stroke:#f9f616;stroke-opacity:1"
       id="path4086-5"
       sodipodi:cx="36.16346"
       sodipodi:cy="5.977654"
       sodipodi:rx="0.6060915"
       sodipodi:ry="0.70710677"
       d="m 36.769551,5.977654 a 0.6060915,0.70710677 0 1 1 -1.212183,0 0.6060915,0.70710677 0 1 1 1.212183,0 z"
       transform="translate(-21.415233,1.111168)" />
    <path
       sodipodi:type="arc"
       style="fill:#11ff20;fill-opacity:1;stroke:#f9f616;stroke-opacity:1"
       id="path4086-4"
       sodipodi:cx="36.16346"
       sodipodi:cy="5.977654"
       sodipodi:rx="0.6060915"
       sodipodi:ry="0.70710677"
       d="m 36.769551,5.977654 a 0.6060915,0.70710677 0 1 1 -1.212183,0 0.6060915,0.70710677 0 1 1 1.212183,0 z"
       transform="translate(-16.5665,1.1111679)" />
    <path
       sodipodi:type="arc"
       style="fill:#11ff20;fill-opacity:1;stroke:#f9f616;stroke-opacity:1"
       id="path4086-3"
       sodipodi:cx="36.16346"
       sodipodi:cy="5.977654"
       sodipodi:rx="0.6060915"
       sodipodi:ry="0.70710677"
       d="m 36.769551,5.977654 a 0.6060915,0.70710677 0 1 1 -1.212183,0 0.6060915,0.70710677 0 1 1 1.212183,0 z"
       transform="translate(-11.313707,0.80812219)" />
    <path
       sodipodi:type="arc"
       style="fill:#11ff20;fill-opacity:1;stroke:#f9f616;stroke-opacity:1"
       id="path4086-3-1"
       sodipodi:cx="36.16346"
       sodipodi:cy="5.977654"
       sodipodi:rx="0.6060915"
       sodipodi:ry="0.70710677"
       d="m 36.769551,5.977654 a 0.6060915,0.70710677 0 1 1 -1.212183,0 0.6060915,0.70710677 0 1 1 1.212183,0 z"
       transform="translate(-10.101524,3.8385799)" />
    <path
       sodipodi:type="arc"
       style="fill:#11ff20;fill-opacity:1;stroke:#f9f616;stroke-opacity:1"
       id="path4086-3-1-2"
       sodipodi:cx="36.16346"
       sodipodi:cy="5.977654"
       sodipodi:rx="0.6060915"
       sodipodi:ry="0.70710677"
       d="m 36.769551,5.977654 a 0.6060915,0.70710677 0 1 1 -1.212183,0 0.6060915,0.70710677 0 1 1 1.212183,0 z"
       transform="translate(-9.0913717,7.2730984)" />
    <path
       sodipodi:type="arc"
       style="fill:#11ff20;fill-opacity:1;stroke:#f9f616;stroke-opacity:1"
       id="path4086-3-1-3"
       sodipodi:cx="36.16346"
       sodipodi:cy="5.977654"
       sodipodi:rx="0.6060915"
       sodipodi:ry="0.70710677"
       d="m 36.769551,5.977654 a 0.6060915,0.70710677 0 1 1 -1.212183,0 0.6060915,0.70710677 0 1 1 1.212183,0 z"
       transform="translate(-7.7781733,10.202541)" />
    <path
       sodipodi:type="arc"
       style="fill:#11ff20;fill-opacity:1;stroke:#f9f616;stroke-opacity:1"
       id="path4086-3-1-34"
       sodipodi:cx="36.16346"
       sodipodi:cy="5.977654"
       sodipodi:rx="0.6060915"
       sodipodi:ry="0.70710677"
       d="m 36.769551,5.977654 a 0.6060915,0.70710677 0 1 1 -1.212183,0 0.6060915,0.70710677 0 1 1 1.212183,0 z"
       transform="translate(-6.869036,13.131983)" />
    <path
       sodipodi:type="arc"
       style="fill:#11ff20;fill-opacity:1;stroke:#f9f616;stroke-opacity:1"
       id="path4086-3-1-1"
       sodipodi:cx="36.16346"
       sodipodi:cy="5.977654"
       sodipodi:rx="0.6060915"
       sodipodi:ry="0.70710677"
       d="m 36.769551,5.977654 a 0.6060915,0.70710677 0 1 1 -1.212183,0 0.6060915,0.70710677 0 1 1 1.212183,0 z"
       transform="translate(-6.060914,16.263456)" />
    <path
       sodipodi:type="arc"
       style="fill:#11ff20;fill-opacity:1;stroke:#f9f616;stroke-opacity:1"
       id="path4086-3-1-13"
       sodipodi:cx="36.16346"
       sodipodi:cy="5.977654"
       sodipodi:rx="0.6060915"
       sodipodi:ry="0.70710677"
       d="m 36.769551,5.977654 a 0.6060915,0.70710677 0 1 1 -1.212183,0 0.6060915,0.70710677 0 1 1 1.212183,0 z"
       transform="translate(-4.8487309,19.495944)" />
    <path
       sodipodi:type="arc"
       style="fill:#11ff20;fill-opacity:1;stroke:#f9f616;stroke-opacity:1"
       id="path4086-3-1-8"
       sodipodi:cx="36.16346"
       sodipodi:cy="5.977654"
       sodipodi:rx="0.6060915"
       sodipodi:ry="0.70710677"
       d="m 36.769551,5.977654 a 0.6060915,0.70710677 0 1 1 -1.212183,0 0.6060915,0.70710677 0 1 1 1.212183,0 z"
       transform="translate(-3.6365478,22.728432)" />
    <path
       sodipodi:type="arc"
       style="fill:#11ff20;fill-opacity:1;stroke:#f9f616;stroke-opacity:1"
       id="path4086-3-1-7"
       sodipodi:cx="36.16346"
       sodipodi:cy="5.977654"
       sodipodi:rx="0.6060915"
       sodipodi:ry="0.70710677"
       d="m 36.769551,5.977654 a 0.6060915,0.70710677 0 1 1 -1.212183,0 0.6060915,0.70710677 0 1 1 1.212183,0 z"
       transform="translate(-2.7274105,25.960921)" />
    <path
       sodipodi:type="arc"
       style="fill:#11ff20;fill-opacity:1;stroke:#f9f616;stroke-opacity:1"
       id="path4086-3-1-4"
       sodipodi:cx="36.16346"
       sodipodi:cy="5.977654"
       sodipodi:rx="0.6060915"
       sodipodi:ry="0.70710677"
       d="m 36.769551,5.977654 a 0.6060915,0.70710677 0 1 1 -1.212183,0 0.6060915,0.70710677 0 1 1 1.212183,0 z"
       transform="translate(-1.8182732,28.890363)" />
    <path
       sodipodi:type="arc"
       style="fill:#11ff20;fill-opacity:1;stroke:#f9f616;stroke-opacity:1"
       id="path4086-3-1-27"
       sodipodi:cx="36.16346"
       sodipodi:cy="5.977654"
       sodipodi:rx="0.6060915"
       sodipodi:ry="0.70710677"
       d="m 36.769551,5.977654 a 0.6060915,0.70710677 0 1 1 -1.212183,0 0.6060915,0.70710677 0 1 1 1.212183,0 z"
       transform="translate(-5.5558376,32.324882)" />
    <path
       sodipodi:type="arc"
       style="fill:#11ff20;fill-opacity:1;stroke:#f9f616;stroke-opacity:1"
       id="path4086-3-1-79"
       sodipodi:cx="36.16346"
       sodipodi:cy="5.977654"
       sodipodi:rx="0.6060915"
       sodipodi:ry="0.70710677"
       d="m 36.769551,5.977654 a 0.6060915,0.70710677 0 1 1 -1.212183,0 0.6060915,0.70710677 0 1 1 1.212183,0 z"
       transform="translate(1.3266777e-6,32.526912)" />
    <path
       sodipodi:type="arc"
       style="fill:#11ff20;fill-opacity:1;stroke:#f9f616;stroke-opacity:1"
       id="path4086-3-1-31"
       sodipodi:cx="36.16346"
       sodipodi:cy="5.977654"
       sodipodi:rx="0.6060915"
       sodipodi:ry="0.70710677"
       d="m 36.769551,5.977654 a 0.6060915,0.70710677 0 1 1 -1.212183,0 0.6060915,0.70710677 0 1 1 1.212183,0 z"
       transform="translate(-5.2527919,32.324882)" />
    <path
       sodipodi:type="arc"
       style="fill:#11ff20;fill-opacity:1;stroke:#f9f616;stroke-opacity:1"
       id="path4086-3-1-9"
       sodipodi:cx="36.16346"
       sodipodi:cy="5.977654"
       sodipodi:rx="0.6060915"
       sodipodi:ry="0.70710677"
       d="m 36.769551,5.977654 a 0.6060915,0.70710677 0 1 1 -1.212183,0 0.6060915,0.70710677 0 1 1 1.212183,0 z"
       transform="translate(-10.707616,32.324882)" />
    <path
       sodipodi:type="arc"
       style="fill:#11ff20;fill-opacity:1;stroke:#f9f616;stroke-opacity:1"
       id="path4086-3-1-86"
       sodipodi:cx="36.16346"
       sodipodi:cy="5.977654"
       sodipodi:rx="0.6060915"
       sodipodi:ry="0.70710677"
       d="m 36.769551,5.977654 a 0.6060915,0.70710677 0 1 1 -1.212183,0 0.6060915,0.70710677 0 1 1 1.212183,0 z"
       transform="translate(-15.253302,32.425897)" />
    <path
       sodipodi:type="arc"
       style="fill:#11ff20;fill-opacity:1;stroke:#f9f616;stroke-opacity:1"
       id="path4086-3-1-5"
       sodipodi:cx="36.16346"
       sodipodi:cy="5.977654"
       sodipodi:rx="0.6060915"
       sodipodi:ry="0.70710677"
       d="m 36.769551,5.977654 a 0.6060915,0.70710677 0 1 1 -1.212183,0 0.6060915,0.70710677 0 1 1 1.212183,0 z"
       transform="translate(-16.465485,29.59747)" />
    <path
       sodipodi:type="arc"
       style="fill:#11ff20;fill-opacity:1;stroke:#f9f616;stroke-opacity:1"
       id="path4086-3-1-0"
       sodipodi:cx="36.16346"
       sodipodi:cy="5.977654"
       sodipodi:rx="0.6060915"
       sodipodi:ry="0.70710677"
       d="m 36.769551,5.977654 a 0.6060915,0.70710677 0 1 1 -1.212183,0 0.6060915,0.70710677 0 1 1 1.212183,0 z"
       transform="translate(-17.677669,26.263967)" />
    <path
       sodipodi:type="arc"
       style="fill:#11ff20;fill-opacity:1;stroke:#f9f616;stroke-opacity:1"
       id="path4086-3-1-28"
       sodipodi:cx="36.16346"
       sodipodi:cy="5.977654"
       sodipodi:rx="0.6060915"
       sodipodi:ry="0.70710677"
       d="m 36.769551,5.977654 a 0.6060915,0.70710677 0 1 1 -1.212183,0 0.6060915,0.70710677 0 1 1 1.212183,0 z"
       transform="translate(-19.091882,22.829448)" />
    <path
       sodipodi:type="arc"
       style="fill:#11ff20;fill-opacity:1;stroke:#f9f616;stroke-opacity:1"
       id="path4086-3-1-6"
       sodipodi:cx="36.16346"
       sodipodi:cy="5.977654"
       sodipodi:rx="0.6060915"
       sodipodi:ry="0.70710677"
       d="m 36.769551,5.977654 a 0.6060915,0.70710677 0 1 1 -1.212183,0 0.6060915,0.70710677 0 1 1 1.212183,0 z"
       transform="translate(-19.798988,19.697975)" />
    <path
       sodipodi:type="arc"
       style="fill:#11ff20;fill-opacity:1;stroke:#f9f616;stroke-opacity:1"
       id="path4086-3-1-02"
       sodipodi:cx="36.16346"
       sodipodi:cy="5.977654"
       sodipodi:rx="0.6060915"
       sodipodi:ry="0.70710677"
       d="m 36.769551,5.977654 a 0.6060915,0.70710677 0 1 1 -1.212183,0 0.6060915,0.70710677 0 1 1 1.212183,0 z"
       transform="translate(-14.849241,19.596959)" />
    <path
       sodipodi:type="arc"
       style="fill:#11ff20;fill-opacity:1;stroke:#f9f616;stroke-opacity:1"
       id="path4086-3-1-48"
       sodipodi:cx="36.16346"
       sodipodi:cy="5.977654"
       sodipodi:rx="0.6060915"
       sodipodi:ry="0.70710677"
       d="m 36.769551,5.977654 a 0.6060915,0.70710677 0 1 1 -1.212183,0 0.6060915,0.70710677 0 1 1 1.212183,0 z"
       transform="translate(-10.000509,19.59696)" />
    <path
       sodipodi:type="arc"
       style="fill:#11ff20;fill-opacity:1;stroke:#f9f616;stroke-opacity:1"
       id="path4086-3-1-65"
       sodipodi:cx="36.16346"
       sodipodi:cy="5.977654"
       sodipodi:rx="0.6060915"
       sodipodi:ry="0.70710677"
       d="m 36.769551,5.977654 a 0.6060915,0.70710677 0 1 1 -1.212183,0 0.6060915,0.70710677 0 1 1 1.212183,0 z"
       transform="translate(-9.0913715,22.728433)" />
    <path
       sodipodi:type="arc"
       style="fill:#11ff20;fill-opacity:1;stroke:#f9f616;stroke-opacity:1"
       id="path4086-3-1-09"
       sodipodi:cx="36.16346"
       sodipodi:cy="5.977654"
       sodipodi:rx="0.6060915"
       sodipodi:ry="0.70710677"
       d="m 36.769551,5.977654 a 0.6060915,0.70710677 0 1 1 -1.212183,0 0.6060915,0.70710677 0 1 1 1.212183,0 z"
       transform="translate(-11.414722,16.263456)" />
    <path
       sodipodi:type="arc"
       style="fill:#11ff20;fill-opacity:1;stroke:#f9f616;stroke-opacity:1"
       id="path4086-3-1-00"
       sodipodi:cx="36.16346"
       sodipodi:cy="5.977654"
       sodipodi:rx="0.6060915"
       sodipodi:ry="0.70710677"
       d="m 36.769551,5.977654 a 0.6060915,0.70710677 0 1 1 -1.212183,0 0.6060915,0.70710677 0 1 1 1.212183,0 z"
       transform="translate(-12.222844,13.131983)" />
    <path
       sodipodi:type="arc"
       style="fill:#11ff20;fill-opacity:1;stroke:#f9f616;stroke-opacity:1"
       id="path4086-3-1-61"
       sodipodi:cx="36.16346"
       sodipodi:cy="5.977654"
       sodipodi:rx="0.6060915"
       sodipodi:ry="0.70710677"
       d="m 36.769551,5.977654 a 0.6060915,0.70710677 0 1 1 -1.212183,0 0.6060915,0.70710677 0 1 1 1.212183,0 z"
       transform="translate(-13.232997,10.404571)" />
    <path
       sodipodi:type="arc"
       style="fill:#11ff20;fill-opacity:1;stroke:#f9f616;stroke-opacity:1"
       id="path4086-3-1-38"
       sodipodi:cx="36.16346"
       sodipodi:cy="5.977654"
       sodipodi:rx="0.6060915"
       sodipodi:ry="0.70710677"
       d="m 36.769551,5.977654 a 0.6060915,0.70710677 0 1 1 -1.212183,0 0.6060915,0.70710677 0 1 1 1.212183,0 z"
       transform="translate(-14.142135,7.071068)" />
    <path
       sodipodi:type="arc"
       style="fill:#11ff20;fill-opacity:1;stroke:#f9f616;stroke-opacity:1"
       id="path4086-3-1-93"
       sodipodi:cx="36.16346"
       sodipodi:cy="5.977654"
       sodipodi:rx="0.6060915"
       sodipodi:ry="0.70710677"
       d="m 36.769551,5.977654 a 0.6060915,0.70710677 0 1 1 -1.212183,0 0.6060915,0.70710677 0 1 1 1.212183,0 z"
       transform="translate(-19.091882,7.2730985)" />
    <path
       sodipodi:type="arc"
       style="fill:#11ff20;fill-opacity:1;stroke:#f9f616;stroke-opacity:1"
       id="path4086-3-1-44"
       sodipodi:cx="36.16346"
       sodipodi:cy="5.977654"
       sodipodi:rx="0.6060915"
       sodipodi:ry="0.70710677"
       d="m 36.769551,5.977654 a 0.6060915,0.70710677 0 1 1 -1.212183,0 0.6060915,0.70710677 0 1 1 1.212183,0 z"
       transform="translate(-18.081729,10.606602)" />
    <path
       sodipodi:type="arc"
       style="fill:#11ff20;fill-opacity:1;stroke:#f9f616;stroke-opacity:1"
       id="path4086-3-1-60"
       sodipodi:cx="36.16346"
       sodipodi:cy="5.977654"
       sodipodi:rx="0.6060915"
       sodipodi:ry="0.70710677"
       d="m 36.769551,5.977654 a 0.6060915,0.70710677 0 1 1 -1.212183,0 0.6060915,0.70710677 0 1 1 1.212183,0 z"
       transform="translate(-16.869546,13.637059)" />
    <path
       sodipodi:type="arc"
       style="fill:#11ff20;fill-opacity:1;stroke:#f9f616;stroke-opacity:1"
       id="path4086-3-1-66"
       sodipodi:cx="36.16346"
       sodipodi:cy="5.977654"
       sodipodi:rx="0.6060915"
       sodipodi:ry="0.70710677"
       d="m 36.769551,5.977654 a 0.6060915,0.70710677 0 1 1 -1.212183,0 0.6060915,0.70710677 0 1 1 1.212183,0 z"
       transform="translate(-16.061424,16.566502)" />
    <path
       sodipodi:type="arc"
       style="fill:#11ff20;fill-opacity:1;stroke:#f9f616;stroke-opacity:1"
       id="path4086-3-1-18"
       sodipodi:cx="36.16346"
       sodipodi:cy="5.977654"
       sodipodi:rx="0.6060915"
       sodipodi:ry="0.70710677"
       d="m 36.769551,5.977654 a 0.6060915,0.70710677 0 1 1 -1.212183,0 0.6060915,0.70710677 0 1 1 1.212183,0 z"
       transform="translate(-20.607111,16.566502)" />
    <path
       sodipodi:type="arc"
       style="fill:#11ff20;fill-opacity:1;stroke:#f9f616;stroke-opacity:1"
       id="path4086-3-1-49"
       sodipodi:cx="36.16346"
       sodipodi:cy="5.977654"
       sodipodi:rx="0.6060915"
       sodipodi:ry="0.70710677"
       d="m 36.769551,5.977654 a 0.6060915,0.70710677 0 1 1 -1.212183,0 0.6060915,0.70710677 0 1 1 1.212183,0 z"
       transform="translate(-21.920309,13.435029)" />
    <path
       sodipodi:type="arc"
       style="fill:#11ff20;fill-opacity:1;stroke:#f9f616;stroke-opacity:1"
       id="path4086-3-1-63"
       sodipodi:cx="36.16346"
       sodipodi:cy="5.977654"
       sodipodi:rx="0.6060915"
       sodipodi:ry="0.70710677"
       d="m 36.769551,5.977654 a 0.6060915,0.70710677 0 1 1 -1.212183,0 0.6060915,0.70710677 0 1 1 1.212183,0 z"
       transform="translate(-22.930462,10.505586)" />
    <path
       sodipodi:type="arc"
       style="fill:#11ff20;fill-opacity:1;stroke:#f9f616;stroke-opacity:1"
       id="path4086-3-1-78"
       sodipodi:cx="36.16346"
       sodipodi:cy="5.977654"
       sodipodi:rx="0.6060915"
       sodipodi:ry="0.70710677"
       d="m 36.769551,5.977654 a 0.6060915,0.70710677 0 1 1 -1.212183,0 0.6060915,0.70710677 0 1 1 1.212183,0 z"
       transform="translate(-22.829446,10.00051)" />
    <path
       sodipodi:type="arc"
       style="fill:#11ff20;fill-opacity:1;stroke:#f9f616;stroke-opacity:1"
       id="path4086-3-1-82"
       sodipodi:cx="36.16346"
       sodipodi:cy="5.977654"
       sodipodi:rx="0.6060915"
       sodipodi:ry="0.70710677"
       d="m 36.769551,5.977654 a 0.6060915,0.70710677 0 1 1 -1.212183,0 0.6060915,0.70710677 0 1 1 1.212183,0 z"
       transform="translate(-24.344675,7.3741134)" />
    <path
       sodipodi:type="arc"
       style="fill:#11ff20;fill-opacity:1;stroke:#f9f616;stroke-opacity:1"
       id="path4086-3-1-91"
       sodipodi:cx="36.16346"
       sodipodi:cy="5.977654"
       sodipodi:rx="0.6060915"
       sodipodi:ry="0.70710677"
       d="m 36.769551,5.977654 a 0.6060915,0.70710677 0 1 1 -1.212183,0 0.6060915,0.70710677 0 1 1 1.212183,0 z"
       transform="translate(-25.455843,3.9395951)" />
    <path
       sodipodi:type="arc"
       style="fill:#11ff20;fill-opacity:1;stroke:#f9f616;stroke-opacity:1"
       id="path4086-3-1-35"
       sodipodi:cx="36.16346"
       sodipodi:cy="5.977654"
       sodipodi:rx="0.6060915"
       sodipodi:ry="0.70710677"
       d="m 36.769551,5.977654 a 0.6060915,0.70710677 0 1 1 -1.212183,0 0.6060915,0.70710677 0 1 1 1.212183,0 z"
       transform="translate(-20.40508,4.0406104)" />
    <path
       sodipodi:type="arc"
       style="fill:#11ff20;fill-opacity:1;stroke:#f9f616;stroke-opacity:1"
       id="path4086-3-1-98"
       sodipodi:cx="36.16346"
       sodipodi:cy="5.977654"
       sodipodi:rx="0.6060915"
       sodipodi:ry="0.70710677"
       d="m 36.769551,5.977654 a 0.6060915,0.70710677 0 1 1 -1.212183,0 0.6060915,0.70710677 0 1 1 1.212183,0 z"
       transform="translate(-15.253302,4.0406104)" />
    <path
       sodipodi:type="arc"
       style="fill:#11ff20;fill-opacity:1;stroke:#f9f616;stroke-opacity:1"
       id="path4086-3-1-40"
       sodipodi:cx="36.16346"
       sodipodi:cy="5.977654"
       sodipodi:rx="0.6060915"
       sodipodi:ry="0.70710677"
       d="m 36.769551,5.977654 a 0.6060915,0.70710677 0 1 1 -1.212183,0 0.6060915,0.70710677 0 1 1 1.212183,0 z"
       transform="translate(-13.940104,22.930463)" />
    <path
       sodipodi:type="arc"
       style="fill:#11ff20;fill-opacity:1;stroke:#f9f616;stroke-opacity:1"
       id="path4086-3-1-76"
       sodipodi:cx="36.16346"
       sodipodi:cy="5.977654"
       sodipodi:rx="0.6060915"
       sodipodi:ry="0.70710677"
       d="m 36.769551,5.977654 a 0.6060915,0.70710677 0 1 1 -1.212183,0 0.6060915,0.70710677 0 1 1 1.212183,0 z"
       transform="translate(-12.828936,25.96092)" />
    <path
       sodipodi:type="arc"
       style="fill:#11ff20;fill-opacity:1;stroke:#f9f616;stroke-opacity:1"
       id="path4086-3-1-36"
       sodipodi:cx="36.16346"
       sodipodi:cy="5.977654"
       sodipodi:rx="0.6060915"
       sodipodi:ry="0.70710677"
       d="m 36.769551,5.977654 a 0.6060915,0.70710677 0 1 1 -1.212183,0 0.6060915,0.70710677 0 1 1 1.212183,0 z"
       transform="translate(-7.778173,25.960921)" />
    <path
       sodipodi:type="arc"
       style="fill:#11ff20;fill-opacity:1;stroke:#f9f616;stroke-opacity:1"
       id="path4086-3-1-15"
       sodipodi:cx="36.16346"
       sodipodi:cy="5.977654"
       sodipodi:rx="0.6060915"
       sodipodi:ry="0.70710677"
       d="m 36.769551,5.977654 a 0.6060915,0.70710677 0 1 1 -1.212183,0 0.6060915,0.70710677 0 1 1 1.212183,0 z"
       transform="translate(-6.7680207,29.193408)" />
    <path
       sodipodi:type="arc"
       style="fill:#11ff20;fill-opacity:1;stroke:#f9f616;stroke-opacity:1"
       id="path4086-3-1-42"
       sodipodi:cx="36.16346"
       sodipodi:cy="5.977654"
       sodipodi:rx="0.6060915"
       sodipodi:ry="0.70710677"
       d="m 36.769551,5.977654 a 0.6060915,0.70710677 0 1 1 -1.212183,0 0.6060915,0.70710677 0 1 1 1.212183,0 z"
       transform="translate(-11.515738,28.890363)" />
  </g>
</svg>
