<?xml version="1.0" encoding="UTF-8" standalone="no"?>
<!-- Created with Inkscape (http://www.inkscape.org/) -->

<svg
   xmlns:dc="http://purl.org/dc/elements/1.1/"
   xmlns:cc="http://creativecommons.org/ns#"
   xmlns:rdf="http://www.w3.org/1999/02/22-rdf-syntax-ns#"
   xmlns:svg="http://www.w3.org/2000/svg"
   xmlns="http://www.w3.org/2000/svg"
   xmlns:xlink="http://www.w3.org/1999/xlink"
   xmlns:sodipodi="http://sodipodi.sourceforge.net/DTD/sodipodi-0.dtd"
   xmlns:inkscape="http://www.inkscape.org/namespaces/inkscape"
   width="48px"
   height="48px"
   id="svg3234"
   version="1.1"
   inkscape:version="0.48.2 r9819"
   sodipodi:docname="select1.svg"
   inkscape:export-filename="H:\prj\Look3D-qt\Look3D-gui\Look3D\images\select1.png"
   inkscape:export-xdpi="90"
   inkscape:export-ydpi="90">
  <defs
     id="defs3236" />
  <sodipodi:namedview
     id="base"
     pagecolor="#ffffff"
     bordercolor="#666666"
     borderopacity="1.0"
     inkscape:pageopacity="0.0"
     inkscape:pageshadow="2"
     inkscape:zoom="9.8994949"
     inkscape:cx="24"
     inkscape:cy="20.821745"
     inkscape:current-layer="layer1"
     showgrid="true"
     inkscape:grid-bbox="true"
     inkscape:document-units="px"
     inkscape:window-width="1440"
     inkscape:window-height="838"
     inkscape:window-x="-8"
     inkscape:window-y="-8"
     inkscape:window-maximized="1" />
  <metadata
     id="metadata3239">
    <rdf:RDF>
      <cc:Work
         rdf:about="">
        <dc:format>image/svg+xml</dc:format>
        <dc:type
           rdf:resource="http://purl.org/dc/dcmitype/StillImage" />
        <dc:title></dc:title>
      </cc:Work>
    </rdf:RDF>
  </metadata>
  <g
     id="layer1"
     inkscape:label="Layer 1"
     inkscape:groupmode="layer">
    <path
       style="fill:none;stroke:#000000;stroke-width:1px;stroke-linecap:butt;stroke-linejoin:miter;stroke-opacity:1"
       d="m 1.1669916,5.6697454 c 10.4072294,0 10.4072294,0 10.4072294,0"
       id="path3293"
       inkscape:connector-curvature="0" />
    <path
       style="fill:none;stroke:#000000;stroke-width:1px;stroke-linecap:butt;stroke-linejoin:miter;stroke-opacity:1"
       d="M 6.2629462,1.0279074 6.1193982,10.187801"
       id="path3295"
       inkscape:connector-curvature="0" />
    <path
       sodipodi:type="arc"
       style="fill:#ffff00;stroke:#ffff00;stroke-width:2.19977498;stroke-linejoin:miter;stroke-opacity:1"
       id="path3297"
       sodipodi:cx="20.102036"
       sodipodi:cy="13.149737"
       sodipodi:rx="2.8284271"
       sodipodi:ry="1.8182746"
       d="m 22.930463,13.149737 a 2.8284271,1.8182746 0 1 1 -5.656855,0 2.8284271,1.8182746 0 1 1 5.656855,0 z"
       transform="matrix(0.41870301,0,0,0.49355701,-2.1897241,-0.85134464)" />
    <use
       x="0"
       y="0"
       xlink:href="#path3293"
       id="use3367"
       width="48"
       height="48" />
    <use
       x="0"
       y="0"
       xlink:href="#path3295"
       id="use3369"
       width="48"
       height="48" />
    <use
       x="0"
       y="0"
       xlink:href="#path3297"
       id="use3371"
       width="48"
       height="48" />
    <path
       inkscape:connector-curvature="0"
       id="path3373"
       d="m 12.220187,5.6697454 c 10.40723,0 10.40723,0 10.40723,0"
       style="fill:none;stroke:#000000;stroke-width:1px;stroke-linecap:butt;stroke-linejoin:miter;stroke-opacity:1" />
    <path
       inkscape:connector-curvature="0"
       id="path3375"
       d="M 17.316141,1.0279074 17.172593,10.187801"
       style="fill:none;stroke:#000000;stroke-width:1px;stroke-linecap:butt;stroke-linejoin:miter;stroke-opacity:1" />
    <path
       transform="matrix(0.41870301,0,0,0.49355701,8.8634712,-0.85134464)"
       d="m 22.930463,13.149737 a 2.8284271,1.8182746 0 1 1 -5.656855,0 2.8284271,1.8182746 0 1 1 5.656855,0 z"
       sodipodi:ry="1.8182746"
       sodipodi:rx="2.8284271"
       sodipodi:cy="13.149737"
       sodipodi:cx="20.102036"
       id="path3377"
       style="fill:#ffff00;stroke:#ffff00;stroke-width:2.19977498;stroke-linejoin:miter;stroke-opacity:1"
       sodipodi:type="arc" />
    <use
       height="48"
       width="48"
       id="use3379"
       xlink:href="#path3293"
       y="0"
       x="0"
       transform="translate(11.053195,3.5810771e-7)" />
    <use
       height="48"
       width="48"
       id="use3381"
       xlink:href="#path3295"
       y="0"
       x="0"
       transform="translate(11.053195,3.5810771e-7)" />
    <use
       height="48"
       width="48"
       id="use3383"
       xlink:href="#path3297"
       y="0"
       x="0"
       transform="translate(11.053195,3.5810771e-7)" />
    <path
       style="fill:none;stroke:#000000;stroke-width:1px;stroke-linecap:butt;stroke-linejoin:miter;stroke-opacity:1"
       d="m 1.0234436,15.200987 c 10.4072294,0 10.4072294,0 10.4072294,0"
       id="path3385"
       inkscape:connector-curvature="0" />
    <path
       style="fill:none;stroke:#000000;stroke-width:1px;stroke-linecap:butt;stroke-linejoin:miter;stroke-opacity:1"
       d="m 6.1193982,10.559149 -0.143549,9.159894"
       id="path3387"
       inkscape:connector-curvature="0" />
    <path
       sodipodi:type="arc"
       style="fill:#ffff00;stroke:#ffff00;stroke-width:2.19977498;stroke-linejoin:miter;stroke-opacity:1"
       id="path3389"
       sodipodi:cx="20.102036"
       sodipodi:cy="13.149737"
       sodipodi:rx="2.8284271"
       sodipodi:ry="1.8182746"
       d="m 22.930463,13.149737 a 2.8284271,1.8182746 0 1 1 -5.656855,0 2.8284271,1.8182746 0 1 1 5.656855,0 z"
       transform="matrix(0.41870301,0,0,0.49355701,-2.3332724,8.6798974)" />
    <use
       transform="translate(-0.14354811,9.5312424)"
       x="0"
       y="0"
       xlink:href="#path3293"
       id="use3391"
       width="48"
       height="48" />
    <use
       transform="translate(-0.14354811,9.5312424)"
       x="0"
       y="0"
       xlink:href="#path3295"
       id="use3393"
       width="48"
       height="48" />
    <use
       transform="translate(-0.14354811,9.5312424)"
       x="0"
       y="0"
       xlink:href="#path3297"
       id="use3395"
       width="48"
       height="48" />
    <path
       inkscape:connector-curvature="0"
       id="path3397"
       d="m 12.004865,15.139096 c 10.407229,0 10.407229,0 10.407229,0"
       style="fill:none;stroke:#000000;stroke-width:1px;stroke-linecap:butt;stroke-linejoin:miter;stroke-opacity:1" />
    <path
       inkscape:connector-curvature="0"
       id="path3399"
       d="m 17.100819,10.497258 -0.143548,9.159894"
       style="fill:none;stroke:#000000;stroke-width:1px;stroke-linecap:butt;stroke-linejoin:miter;stroke-opacity:1" />
    <path
       style="fill:none;stroke:#000000;stroke-width:1px;stroke-linecap:butt;stroke-linejoin:miter;stroke-opacity:1"
       d="m 0.80812149,24.670339 c 10.40722951,0 10.40722951,0 10.40722951,0"
       id="path3409"
       inkscape:connector-curvature="0" />
    <path
       style="fill:none;stroke:#000000;stroke-width:1px;stroke-linecap:butt;stroke-linejoin:miter;stroke-opacity:1"
       d="m 5.9040762,20.0285 -0.143549,9.159895"
       id="path3411"
       inkscape:connector-curvature="0" />
    <path
       sodipodi:type="arc"
       style="fill:#ffff00;stroke:#ffff00;stroke-width:2.19977498;stroke-linejoin:miter;stroke-opacity:1"
       id="path3413"
       sodipodi:cx="20.102036"
       sodipodi:cy="13.149737"
       sodipodi:rx="2.8284271"
       sodipodi:ry="1.8182746"
       d="m 22.930463,13.149737 a 2.8284271,1.8182746 0 1 1 -5.656855,0 2.8284271,1.8182746 0 1 1 5.656855,0 z"
       transform="matrix(0.41870301,0,0,0.49355701,-2.5485946,18.149248)" />
    <use
       transform="translate(-0.35887031,19.000593)"
       x="0"
       y="0"
       xlink:href="#path3293"
       id="use3415"
       width="48"
       height="48" />
    <use
       transform="translate(-0.35887031,19.000593)"
       x="0"
       y="0"
       xlink:href="#path3295"
       id="use3417"
       width="48"
       height="48" />
    <use
       transform="translate(-0.35887031,19.000593)"
       x="0"
       y="0"
       xlink:href="#path3297"
       id="use3419"
       width="48"
       height="48" />
    <use
       height="48"
       width="48"
       id="use3421"
       xlink:href="#path3293"
       y="0"
       x="0"
       transform="translate(10.622552,19.124376)" />
    <use
       height="48"
       width="48"
       id="use3423"
       xlink:href="#path3295"
       y="0"
       x="0"
       transform="translate(10.622552,19.124376)" />
    <path
       inkscape:connector-curvature="0"
       id="path3427"
       d="m 23.491363,5.6697454 c 10.407229,0 10.407229,0 10.407229,0"
       style="fill:none;stroke:#000000;stroke-width:1px;stroke-linecap:butt;stroke-linejoin:miter;stroke-opacity:1" />
    <path
       inkscape:connector-curvature="0"
       id="path3429"
       d="M 28.587317,1.0279074 28.443769,10.187801"
       style="fill:none;stroke:#000000;stroke-width:1px;stroke-linecap:butt;stroke-linejoin:miter;stroke-opacity:1" />
    <path
       transform="matrix(0.41870301,0,0,0.49355701,20.134647,-0.85134464)"
       d="m 22.930463,13.149737 a 2.8284271,1.8182746 0 1 1 -5.656855,0 2.8284271,1.8182746 0 1 1 5.656855,0 z"
       sodipodi:ry="1.8182746"
       sodipodi:rx="2.8284271"
       sodipodi:cy="13.149737"
       sodipodi:cx="20.102036"
       id="path3431"
       style="fill:#ffff00;stroke:#ffff00;stroke-width:2.19977498;stroke-linejoin:miter;stroke-opacity:1"
       sodipodi:type="arc" />
    <use
       height="48"
       width="48"
       id="use3433"
       xlink:href="#path3293"
       y="0"
       x="0"
       transform="translate(22.324371,0)" />
    <use
       height="48"
       width="48"
       id="use3435"
       xlink:href="#path3295"
       y="0"
       x="0"
       transform="translate(22.324371,0)" />
    <use
       height="48"
       width="48"
       id="use3437"
       xlink:href="#path3297"
       y="0"
       x="0"
       transform="translate(22.324371,0)" />
    <path
       style="fill:none;stroke:#000000;stroke-width:1px;stroke-linecap:butt;stroke-linejoin:miter;stroke-opacity:1"
       d="m 34.544558,5.6697454 c 10.40723,0 10.40723,0 10.40723,0"
       id="path3439"
       inkscape:connector-curvature="0" />
    <path
       style="fill:none;stroke:#000000;stroke-width:1px;stroke-linecap:butt;stroke-linejoin:miter;stroke-opacity:1"
       d="M 39.640512,1.0279074 39.496964,10.187801"
       id="path3441"
       inkscape:connector-curvature="0" />
    <path
       sodipodi:type="arc"
       style="fill:#ffff00;stroke:#ffff00;stroke-width:2.19977498;stroke-linejoin:miter;stroke-opacity:1"
       id="path3443"
       sodipodi:cx="20.102036"
       sodipodi:cy="13.149737"
       sodipodi:rx="2.8284271"
       sodipodi:ry="1.8182746"
       d="m 22.930463,13.149737 a 2.8284271,1.8182746 0 1 1 -5.656855,0 2.8284271,1.8182746 0 1 1 5.656855,0 z"
       transform="matrix(0.41870301,0,0,0.49355701,31.187842,-0.85134464)" />
    <use
       transform="translate(33.377566,3.5810771e-7)"
       x="0"
       y="0"
       xlink:href="#path3293"
       id="use3445"
       width="48"
       height="48" />
    <use
       transform="translate(33.377566,3.5810771e-7)"
       x="0"
       y="0"
       xlink:href="#path3295"
       id="use3447"
       width="48"
       height="48" />
    <use
       transform="translate(33.377566,3.5810771e-7)"
       x="0"
       y="0"
       xlink:href="#path3297"
       id="use3449"
       width="48"
       height="48" />
    <path
       inkscape:connector-curvature="0"
       id="path3451"
       d="m 23.347815,15.200987 c 10.407229,0 10.407229,0 10.407229,0"
       style="fill:none;stroke:#000000;stroke-width:1px;stroke-linecap:butt;stroke-linejoin:miter;stroke-opacity:1" />
    <path
       inkscape:connector-curvature="0"
       id="path3453"
       d="M 28.443769,10.559149 28.30022,19.719043"
       style="fill:none;stroke:#000000;stroke-width:1px;stroke-linecap:butt;stroke-linejoin:miter;stroke-opacity:1" />
    <path
       style="fill:none;stroke:#000000;stroke-width:1px;stroke-linecap:butt;stroke-linejoin:miter;stroke-opacity:1"
       d="m 34.329236,15.139096 c 10.407229,0 10.407229,0 10.407229,0"
       id="path3463"
       inkscape:connector-curvature="0" />
    <path
       style="fill:none;stroke:#000000;stroke-width:1px;stroke-linecap:butt;stroke-linejoin:miter;stroke-opacity:1"
       d="m 39.42519,10.497258 -0.143548,9.159894"
       id="path3465"
       inkscape:connector-curvature="0" />
    <path
       inkscape:connector-curvature="0"
       id="path3475"
       d="m 23.132493,24.670339 c 10.407229,0 10.407229,0 10.407229,0"
       style="fill:none;stroke:#000000;stroke-width:1px;stroke-linecap:butt;stroke-linejoin:miter;stroke-opacity:1" />
    <path
       inkscape:connector-curvature="0"
       id="path3477"
       d="m 28.228447,20.0285 -0.143549,9.159895"
       style="fill:none;stroke:#000000;stroke-width:1px;stroke-linecap:butt;stroke-linejoin:miter;stroke-opacity:1" />
    <use
       height="48"
       width="48"
       id="use3481"
       xlink:href="#path3293"
       y="0"
       x="0"
       transform="translate(21.965501,19.000593)" />
    <use
       height="48"
       width="48"
       id="use3483"
       xlink:href="#path3295"
       y="0"
       x="0"
       transform="translate(21.965501,19.000593)" />
    <use
       transform="translate(32.946923,19.124376)"
       x="0"
       y="0"
       xlink:href="#path3293"
       id="use3487"
       width="48"
       height="48" />
    <use
       transform="translate(32.946923,19.124376)"
       x="0"
       y="0"
       xlink:href="#path3295"
       id="use3489"
       width="48"
       height="48" />
    <path
       style="fill:none;stroke:#000000;stroke-width:1px;stroke-linecap:butt;stroke-linejoin:miter;stroke-opacity:1"
       d="m 0.56090023,34.560108 c 10.40722877,0 10.40722877,0 10.40722877,0"
       id="path3493"
       inkscape:connector-curvature="0" />
    <path
       style="fill:none;stroke:#000000;stroke-width:1px;stroke-linecap:butt;stroke-linejoin:miter;stroke-opacity:1"
       d="m 5.6568542,29.91827 -0.143548,9.159894"
       id="path3495"
       inkscape:connector-curvature="0" />
    <path
       sodipodi:type="arc"
       style="fill:#ffff00;stroke:#ffff00;stroke-width:2.19977498;stroke-linejoin:miter;stroke-opacity:1"
       id="path3497"
       sodipodi:cx="20.102036"
       sodipodi:cy="13.149737"
       sodipodi:rx="2.8284271"
       sodipodi:ry="1.8182746"
       d="m 22.930463,13.149737 a 2.8284271,1.8182746 0 1 1 -5.656855,0 2.8284271,1.8182746 0 1 1 5.656855,0 z"
       transform="matrix(0.41870301,0,0,0.49355701,-2.7958158,28.039018)" />
    <use
       transform="translate(-0.60609177,28.890363)"
       x="0"
       y="0"
       xlink:href="#path3293"
       id="use3499"
       width="48"
       height="48" />
    <use
       transform="translate(-0.60609177,28.890363)"
       x="0"
       y="0"
       xlink:href="#path3295"
       id="use3501"
       width="48"
       height="48" />
    <use
       transform="translate(-0.60609177,28.890363)"
       x="0"
       y="0"
       xlink:href="#path3297"
       id="use3503"
       width="48"
       height="48" />
    <path
       inkscape:connector-curvature="0"
       id="path3505"
       d="m 11.614095,34.560108 c 10.40723,0 10.40723,0 10.40723,0"
       style="fill:none;stroke:#000000;stroke-width:1px;stroke-linecap:butt;stroke-linejoin:miter;stroke-opacity:1" />
    <path
       inkscape:connector-curvature="0"
       id="path3507"
       d="m 16.710049,29.91827 -0.143548,9.159894"
       style="fill:none;stroke:#000000;stroke-width:1px;stroke-linecap:butt;stroke-linejoin:miter;stroke-opacity:1" />
    <path
       style="fill:none;stroke:#000000;stroke-width:1px;stroke-linecap:butt;stroke-linejoin:miter;stroke-opacity:1"
       d="m 0.41735223,44.09135 c 10.40722877,0 10.40722877,0 10.40722877,0"
       id="path3517"
       inkscape:connector-curvature="0" />
    <path
       style="fill:none;stroke:#000000;stroke-width:1px;stroke-linecap:butt;stroke-linejoin:miter;stroke-opacity:1"
       d="m 5.5133062,39.449512 -0.143549,9.159894"
       id="path3519"
       inkscape:connector-curvature="0" />
    <path
       sodipodi:type="arc"
       style="fill:#ffff00;stroke:#ffff00;stroke-width:2.19977498;stroke-linejoin:miter;stroke-opacity:1"
       id="path3521"
       sodipodi:cx="20.102036"
       sodipodi:cy="13.149737"
       sodipodi:rx="2.8284271"
       sodipodi:ry="1.8182746"
       d="m 22.930463,13.149737 a 2.8284271,1.8182746 0 1 1 -5.656855,0 2.8284271,1.8182746 0 1 1 5.656855,0 z"
       transform="matrix(0.41870301,0,0,0.49355701,-2.9393638,37.57026)" />
    <use
       transform="translate(-0.74963977,38.421605)"
       x="0"
       y="0"
       xlink:href="#path3293"
       id="use3523"
       width="48"
       height="48" />
    <use
       transform="translate(-0.74963977,38.421605)"
       x="0"
       y="0"
       xlink:href="#path3295"
       id="use3525"
       width="48"
       height="48" />
    <use
       transform="translate(-0.74963977,38.421605)"
       x="0"
       y="0"
       xlink:href="#path3297"
       id="use3527"
       width="48"
       height="48" />
    <path
       inkscape:connector-curvature="0"
       id="path3529"
       d="m 11.398773,44.029459 c 10.407229,0 10.407229,0 10.407229,0"
       style="fill:none;stroke:#000000;stroke-width:1px;stroke-linecap:butt;stroke-linejoin:miter;stroke-opacity:1" />
    <path
       inkscape:connector-curvature="0"
       id="path3531"
       d="m 16.494727,39.387621 -0.143548,9.159894"
       style="fill:none;stroke:#000000;stroke-width:1px;stroke-linecap:butt;stroke-linejoin:miter;stroke-opacity:1" />
    <path
       transform="matrix(0.41870301,0,0,0.49355701,8.0420572,37.508369)"
       d="m 22.930463,13.149737 a 2.8284271,1.8182746 0 1 1 -5.656855,0 2.8284271,1.8182746 0 1 1 5.656855,0 z"
       sodipodi:ry="1.8182746"
       sodipodi:rx="2.8284271"
       sodipodi:cy="13.149737"
       sodipodi:cx="20.102036"
       id="path3533"
       style="fill:#ffff00;stroke:#ffff00;stroke-width:2.19977498;stroke-linejoin:miter;stroke-opacity:1"
       sodipodi:type="arc" />
    <use
       height="48"
       width="48"
       id="use3535"
       xlink:href="#path3293"
       y="0"
       x="0"
       transform="translate(10.231781,38.359714)" />
    <use
       height="48"
       width="48"
       id="use3537"
       xlink:href="#path3295"
       y="0"
       x="0"
       transform="translate(10.231781,38.359714)" />
    <use
       height="48"
       width="48"
       id="use3539"
       xlink:href="#path3297"
       y="0"
       x="0"
       transform="translate(10.231781,38.359714)" />
    <path
       inkscape:connector-curvature="0"
       id="path3559"
       d="m 22.885271,34.459093 c 10.407229,0 10.407229,0 10.407229,0"
       style="fill:none;stroke:#000000;stroke-width:1px;stroke-linecap:butt;stroke-linejoin:miter;stroke-opacity:1" />
    <path
       inkscape:connector-curvature="0"
       id="path3561"
       d="m 27.981225,29.817255 -0.143548,9.159894"
       style="fill:none;stroke:#000000;stroke-width:1px;stroke-linecap:butt;stroke-linejoin:miter;stroke-opacity:1" />
    <path
       style="fill:none;stroke:#000000;stroke-width:1px;stroke-linecap:butt;stroke-linejoin:miter;stroke-opacity:1"
       d="m 33.938466,34.459093 c 10.40723,0 10.40723,0 10.40723,0"
       id="path3571"
       inkscape:connector-curvature="0" />
    <path
       style="fill:none;stroke:#000000;stroke-width:1px;stroke-linecap:butt;stroke-linejoin:miter;stroke-opacity:1"
       d="m 39.03442,29.817255 -0.143548,9.159894"
       id="path3573"
       inkscape:connector-curvature="0" />
    <path
       sodipodi:type="arc"
       style="fill:#ffff00;stroke:#ffff00;stroke-width:2.19977498;stroke-linejoin:miter;stroke-opacity:1"
       id="path3575"
       sodipodi:cx="20.102036"
       sodipodi:cy="13.149737"
       sodipodi:rx="2.8284271"
       sodipodi:ry="1.8182746"
       d="m 22.930463,13.149737 a 2.8284271,1.8182746 0 1 1 -5.656855,0 2.8284271,1.8182746 0 1 1 5.656855,0 z"
       transform="matrix(0.41870301,0,0,0.49355701,30.58175,27.938003)" />
    <use
       transform="translate(32.771474,28.789348)"
       x="0"
       y="0"
       xlink:href="#path3293"
       id="use3577"
       width="48"
       height="48" />
    <use
       transform="translate(32.771474,28.789348)"
       x="0"
       y="0"
       xlink:href="#path3295"
       id="use3579"
       width="48"
       height="48" />
    <use
       transform="translate(32.771474,28.789348)"
       x="0"
       y="0"
       xlink:href="#path3297"
       id="use3581"
       width="48"
       height="48" />
    <path
       inkscape:connector-curvature="0"
       id="path3583"
       d="m 22.741723,43.990335 c 10.407229,0 10.407229,0 10.407229,0"
       style="fill:none;stroke:#000000;stroke-width:1px;stroke-linecap:butt;stroke-linejoin:miter;stroke-opacity:1" />
    <path
       inkscape:connector-curvature="0"
       id="path3585"
       d="m 27.837677,39.348497 -0.143549,9.159894"
       style="fill:none;stroke:#000000;stroke-width:1px;stroke-linecap:butt;stroke-linejoin:miter;stroke-opacity:1" />
    <path
       transform="matrix(0.41870301,0,0,0.49355701,19.385007,37.469245)"
       d="m 22.930463,13.149737 a 2.8284271,1.8182746 0 1 1 -5.656855,0 2.8284271,1.8182746 0 1 1 5.656855,0 z"
       sodipodi:ry="1.8182746"
       sodipodi:rx="2.8284271"
       sodipodi:cy="13.149737"
       sodipodi:cx="20.102036"
       id="path3587"
       style="fill:#ffff00;stroke:#ffff00;stroke-width:2.19977498;stroke-linejoin:miter;stroke-opacity:1"
       sodipodi:type="arc" />
    <use
       height="48"
       width="48"
       id="use3589"
       xlink:href="#path3293"
       y="0"
       x="0"
       transform="translate(21.574731,38.32059)" />
    <use
       height="48"
       width="48"
       id="use3591"
       xlink:href="#path3295"
       y="0"
       x="0"
       transform="translate(21.574731,38.32059)" />
    <use
       height="48"
       width="48"
       id="use3593"
       xlink:href="#path3297"
       y="0"
       x="0"
       transform="translate(21.574731,38.32059)" />
    <path
       style="fill:none;stroke:#000000;stroke-width:1px;stroke-linecap:butt;stroke-linejoin:miter;stroke-opacity:1"
       d="m 33.723144,43.928444 c 10.407229,0 10.407229,0 10.407229,0"
       id="path3595"
       inkscape:connector-curvature="0" />
    <path
       style="fill:none;stroke:#000000;stroke-width:1px;stroke-linecap:butt;stroke-linejoin:miter;stroke-opacity:1"
       d="M 38.819098,39.286606 38.67555,48.4465"
       id="path3597"
       inkscape:connector-curvature="0" />
    <path
       sodipodi:type="arc"
       style="fill:#ffff00;stroke:#ffff00;stroke-width:2.19977498;stroke-linejoin:miter;stroke-opacity:1"
       id="path3599"
       sodipodi:cx="20.102036"
       sodipodi:cy="13.149737"
       sodipodi:rx="2.8284271"
       sodipodi:ry="1.8182746"
       d="m 22.930463,13.149737 a 2.8284271,1.8182746 0 1 1 -5.656855,0 2.8284271,1.8182746 0 1 1 5.656855,0 z"
       transform="matrix(0.41870301,0,0,0.49355701,30.366428,37.407354)" />
    <use
       transform="translate(32.556152,38.258699)"
       x="0"
       y="0"
       xlink:href="#path3293"
       id="use3601"
       width="48"
       height="48" />
    <use
       transform="translate(32.556152,38.258699)"
       x="0"
       y="0"
       xlink:href="#path3295"
       id="use3603"
       width="48"
       height="48" />
    <use
       transform="translate(32.556152,38.258699)"
       x="0"
       y="0"
       xlink:href="#path3297"
       id="use3605"
       width="48"
       height="48" />
    <path
       sodipodi:type="arc"
       style="fill:#800000;fill-opacity:1;stroke:#800000;stroke-linejoin:miter;stroke-opacity:1"
       id="path3607"
       sodipodi:cx="17.02107"
       sodipodi:cy="25.372583"
       sodipodi:rx="2.7779195"
       sodipodi:ry="2.2223356"
       d="m 19.79899,25.372583 a 2.7779195,2.2223356 0 1 1 -5.555839,0 2.7779195,2.2223356 0 1 1 5.555839,0 z"
       transform="translate(-0.20203051,-0.50507627)"
       inkscape:export-filename="H:\prj\Look3D-qt\Look3D-gui\Look3D\images\select1.png"
       inkscape:export-xdpi="90"
       inkscape:export-ydpi="90" />
    <path
       inkscape:export-ydpi="90"
       inkscape:export-xdpi="90"
       inkscape:export-filename="H:\prj\Look3D-qt\Look3D-gui\Look3D\images\select1.png"
       transform="translate(0.20203051,-10.101525)"
       d="m 19.79899,25.372583 a 2.7779195,2.2223356 0 1 1 -5.555839,0 2.7779195,2.2223356 0 1 1 5.555839,0 z"
       sodipodi:ry="2.2223356"
       sodipodi:rx="2.7779195"
       sodipodi:cy="25.372583"
       sodipodi:cx="17.02107"
       id="path3609"
       style="fill:#800000;fill-opacity:1;stroke:#800000;stroke-linejoin:miter;stroke-opacity:1"
       sodipodi:type="arc" />
    <path
       sodipodi:type="arc"
       style="fill:#800000;fill-opacity:1;stroke:#800000;stroke-linejoin:miter;stroke-opacity:1"
       id="path3611"
       sodipodi:cx="17.02107"
       sodipodi:cy="25.372583"
       sodipodi:rx="2.7779195"
       sodipodi:ry="2.2223356"
       d="m 19.79899,25.372583 a 2.7779195,2.2223356 0 1 1 -5.555839,0 2.7779195,2.2223356 0 1 1 5.555839,0 z"
       transform="translate(11.414724,-10.303556)"
       inkscape:export-filename="H:\prj\Look3D-qt\Look3D-gui\Look3D\images\select1.png"
       inkscape:export-xdpi="90"
       inkscape:export-ydpi="90" />
    <path
       inkscape:export-ydpi="90"
       inkscape:export-xdpi="90"
       inkscape:export-filename="H:\prj\Look3D-qt\Look3D-gui\Look3D\images\select1.png"
       transform="translate(11.313708,-1.0101526)"
       d="m 19.79899,25.372583 a 2.7779195,2.2223356 0 1 1 -5.555839,0 2.7779195,2.2223356 0 1 1 5.555839,0 z"
       sodipodi:ry="2.2223356"
       sodipodi:rx="2.7779195"
       sodipodi:cy="25.372583"
       sodipodi:cx="17.02107"
       id="path3613"
       style="fill:#800000;fill-opacity:1;stroke:#800000;stroke-linejoin:miter;stroke-opacity:1"
       sodipodi:type="arc" />
    <path
       sodipodi:type="arc"
       style="fill:#800000;fill-opacity:1;stroke:#800000;stroke-linejoin:miter;stroke-opacity:1"
       id="path3615"
       sodipodi:cx="17.02107"
       sodipodi:cy="25.372583"
       sodipodi:rx="2.7779195"
       sodipodi:ry="2.2223356"
       d="m 19.79899,25.372583 a 2.7779195,2.2223356 0 1 1 -5.555839,0 2.7779195,2.2223356 0 1 1 5.555839,0 z"
       transform="translate(22.324371,-10.202541)"
       inkscape:export-filename="H:\prj\Look3D-qt\Look3D-gui\Look3D\images\select1.png"
       inkscape:export-xdpi="90"
       inkscape:export-ydpi="90" />
    <path
       inkscape:export-ydpi="90"
       inkscape:export-xdpi="90"
       inkscape:export-filename="H:\prj\Look3D-qt\Look3D-gui\Look3D\images\select1.png"
       transform="translate(22.12234,-0.60609182)"
       d="m 19.79899,25.372583 a 2.7779195,2.2223356 0 1 1 -5.555839,0 2.7779195,2.2223356 0 1 1 5.555839,0 z"
       sodipodi:ry="2.2223356"
       sodipodi:rx="2.7779195"
       sodipodi:cy="25.372583"
       sodipodi:cx="17.02107"
       id="path3617"
       style="fill:#800000;fill-opacity:1;stroke:#800000;stroke-linejoin:miter;stroke-opacity:1"
       sodipodi:type="arc" />
    <path
       sodipodi:type="arc"
       style="fill:#800000;fill-opacity:1;stroke:#800000;stroke-linejoin:miter;stroke-opacity:1"
       id="path3619"
       sodipodi:cx="17.02107"
       sodipodi:cy="25.372583"
       sodipodi:rx="2.7779195"
       sodipodi:ry="2.2223356"
       d="m 19.79899,25.372583 a 2.7779195,2.2223356 0 1 1 -5.555839,0 2.7779195,2.2223356 0 1 1 5.555839,0 z"
       transform="translate(-0.30304649,9.0913726)"
       inkscape:export-filename="H:\prj\Look3D-qt\Look3D-gui\Look3D\images\select1.png"
       inkscape:export-xdpi="90"
       inkscape:export-ydpi="90" />
    <path
       sodipodi:type="arc"
       style="fill:#800000;fill-opacity:1;stroke:#800000;stroke-linejoin:miter;stroke-opacity:1"
       id="path3621"
       sodipodi:cx="17.02107"
       sodipodi:cy="25.372583"
       sodipodi:rx="2.7779195"
       sodipodi:ry="2.2223356"
       d="m 19.79899,25.372583 a 2.7779195,2.2223356 0 1 1 -5.555839,0 2.7779195,2.2223356 0 1 1 5.555839,0 z"
       transform="translate(10.808632,9.2934034)"
       inkscape:export-filename="H:\prj\Look3D-qt\Look3D-gui\Look3D\images\select1.png"
       inkscape:export-xdpi="90"
       inkscape:export-ydpi="90" />
  </g>
</svg>
