<?xml version="1.0" encoding="UTF-8" standalone="no"?>
<!-- Created with Inkscape (http://www.inkscape.org/) -->

<svg
   xmlns:dc="http://purl.org/dc/elements/1.1/"
   xmlns:cc="http://creativecommons.org/ns#"
   xmlns:rdf="http://www.w3.org/1999/02/22-rdf-syntax-ns#"
   xmlns:svg="http://www.w3.org/2000/svg"
   xmlns="http://www.w3.org/2000/svg"
   xmlns:sodipodi="http://sodipodi.sourceforge.net/DTD/sodipodi-0.dtd"
   xmlns:inkscape="http://www.inkscape.org/namespaces/inkscape"
   width="48px"
   height="48px"
   id="svg4467"
   version="1.1"
   inkscape:version="0.48.2 r9819"
   sodipodi:docname="viewleft.svg">
  <defs
     id="defs4469" />
  <sodipodi:namedview
     id="base"
     pagecolor="#ffffff"
     bordercolor="#666666"
     borderopacity="1.0"
     inkscape:pageopacity="0.0"
     inkscape:pageshadow="2"
     inkscape:zoom="9.8994949"
     inkscape:cx="24"
     inkscape:cy="26.857143"
     inkscape:current-layer="layer1"
     showgrid="true"
     inkscape:grid-bbox="true"
     inkscape:document-units="px"
     inkscape:window-width="1440"
     inkscape:window-height="838"
     inkscape:window-x="-8"
     inkscape:window-y="-8"
     inkscape:window-maximized="1" />
  <metadata
     id="metadata4472">
    <rdf:RDF>
      <cc:Work
         rdf:about="">
        <dc:format>image/svg+xml</dc:format>
        <dc:type
           rdf:resource="http://purl.org/dc/dcmitype/StillImage" />
        <dc:title></dc:title>
      </cc:Work>
    </rdf:RDF>
  </metadata>
  <g
     id="layer1"
     inkscape:label="Layer 1"
     inkscape:groupmode="layer">
    <path
       style="fill:none;stroke:#000000;stroke-width:0.99999994px;stroke-linecap:butt;stroke-linejoin:miter;stroke-opacity:1"
       d="M 6.4777757,40.432445 45.288256,40.324557"
       id="path4475"
       inkscape:connector-curvature="0" />
    <path
       sodipodi:type="arc"
       style="fill:#11ff20;fill-opacity:1;stroke:#f9f616;stroke-width:0.83573222;stroke-opacity:1"
       id="path4477"
       sodipodi:cx="10.808632"
       sodipodi:cy="16.129686"
       sodipodi:rx="0.80812204"
       sodipodi:ry="0.75761443"
       d="m 11.616754,16.129686 a 0.80812204,0.75761443 0 1 1 -1.616244,0 0.80812204,0.75761443 0 1 1 1.616244,0 z"
       transform="matrix(0.94791667,0,0,1.5104123,-3.5302727,15.847777)" />
    <path
       sodipodi:type="arc"
       style="fill:#11ff20;fill-opacity:1;stroke:#f9f616;stroke-width:0.83573222;stroke-opacity:1"
       id="path4477-0"
       sodipodi:cx="10.808632"
       sodipodi:cy="16.129686"
       sodipodi:rx="0.80812204"
       sodipodi:ry="0.75761443"
       d="m 11.616754,16.129686 a 0.80812204,0.75761443 0 1 1 -1.616244,0 0.80812204,0.75761443 0 1 1 1.616244,0 z"
       transform="matrix(0.94791667,0,0,1.5104123,31.515707,15.975625)" />
    <path
       sodipodi:type="arc"
       style="fill:#11ff20;fill-opacity:1;stroke:#f9f616;stroke-width:0.83573222;stroke-opacity:1"
       id="path4477-9"
       sodipodi:cx="10.808632"
       sodipodi:cy="16.129686"
       sodipodi:rx="0.80812204"
       sodipodi:ry="0.75761443"
       d="m 11.616754,16.129686 a 0.80812204,0.75761443 0 1 1 -1.616244,0 0.80812204,0.75761443 0 1 1 1.616244,0 z"
       transform="matrix(0.94791667,0,0,1.5104123,2.9810024,16.07664)" />
    <path
       sodipodi:type="arc"
       style="fill:#11ff20;fill-opacity:1;stroke:#f9f616;stroke-width:0.83573222;stroke-opacity:1"
       id="path4477-3"
       sodipodi:cx="10.808632"
       sodipodi:cy="16.129686"
       sodipodi:rx="0.80812204"
       sodipodi:ry="0.75761443"
       d="m 11.616754,16.129686 a 0.80812204,0.75761443 0 1 1 -1.616244,0 0.80812204,0.75761443 0 1 1 1.616244,0 z"
       transform="matrix(0.94791667,0,0,1.5104123,25.674711,16.07664)" />
    <path
       sodipodi:type="arc"
       style="fill:#11ff20;fill-opacity:1;stroke:#f9f616;stroke-width:0.83573222;stroke-opacity:1"
       id="path4477-72"
       sodipodi:cx="10.808632"
       sodipodi:cy="16.129686"
       sodipodi:rx="0.80812204"
       sodipodi:ry="0.75761443"
       d="m 11.616754,16.129686 a 0.80812204,0.75761443 0 1 1 -1.616244,0 0.80812204,0.75761443 0 1 1 1.616244,0 z"
       transform="matrix(0.94791667,0,0,1.5104123,19.642205,16.229215)" />
    <path
       sodipodi:type="arc"
       style="fill:#11ff20;fill-opacity:1;stroke:#f9f616;stroke-width:0.83573222;stroke-opacity:1"
       id="path4477-6"
       sodipodi:cx="10.808632"
       sodipodi:cy="16.129686"
       sodipodi:rx="0.80812204"
       sodipodi:ry="0.75761443"
       d="m 11.616754,16.129686 a 0.80812204,0.75761443 0 1 1 -1.616244,0 0.80812204,0.75761443 0 1 1 1.616244,0 z"
       transform="matrix(0.94791667,0,0,1.5104123,14.279979,16.381789)" />
    <path
       sodipodi:type="arc"
       style="fill:#11ff20;fill-opacity:1;stroke:#f9f616;stroke-width:0.83573222;stroke-opacity:1"
       id="path4477-01"
       sodipodi:cx="10.808632"
       sodipodi:cy="16.129686"
       sodipodi:rx="0.80812204"
       sodipodi:ry="0.75761443"
       d="m 11.616754,16.129686 a 0.80812204,0.75761443 0 1 1 -1.616244,0 0.80812204,0.75761443 0 1 1 1.616244,0 z"
       transform="matrix(0.94791667,0,0,1.5104123,8.8219993,15.924065)" />
    <path
       style="fill:none;stroke:#000000;stroke-width:0.99999994px;stroke-linecap:butt;stroke-linejoin:miter;stroke-opacity:1"
       d="M 6.2862683,40.830126 41.359185,7.9240082"
       id="path4475-6"
       inkscape:connector-curvature="0" />
    <path
       sodipodi:type="arc"
       style="fill:#11ff20;fill-opacity:1;stroke:#f9f616;stroke-width:0.83573222;stroke-opacity:1"
       id="path4477-5"
       sodipodi:cx="10.808632"
       sodipodi:cy="16.129686"
       sodipodi:rx="0.80812204"
       sodipodi:ry="0.75761443"
       d="m 11.616754,16.129686 a 0.80812204,0.75761443 0 1 1 -1.616244,0 0.80812204,0.75761443 0 1 1 1.616244,0 z"
       transform="matrix(0.94791667,-0.88643861,0,1.5104123,-3.7217803,25.604426)" />
    <path
       sodipodi:type="arc"
       style="fill:#11ff20;fill-opacity:1;stroke:#f9f616;stroke-width:0.83573222;stroke-opacity:1"
       id="path4477-0-7"
       sodipodi:cx="10.808632"
       sodipodi:cy="16.129686"
       sodipodi:rx="0.80812204"
       sodipodi:ry="0.75761443"
       d="m 11.616754,16.129686 a 0.80812204,0.75761443 0 1 1 -1.616244,0 0.80812204,0.75761443 0 1 1 1.616244,0 z"
       transform="matrix(0.94791667,-0.88643861,0,1.5104123,31.324198,-6.93975)" />
    <path
       sodipodi:type="arc"
       style="fill:#11ff20;fill-opacity:1;stroke:#f9f616;stroke-width:0.83573222;stroke-opacity:1"
       id="path4477-9-5"
       sodipodi:cx="10.808632"
       sodipodi:cy="16.129686"
       sodipodi:rx="0.80812204"
       sodipodi:ry="0.75761443"
       d="m 11.616754,16.129686 a 0.80812204,0.75761443 0 1 1 -1.616244,0 0.80812204,0.75761443 0 1 1 1.616244,0 z"
       transform="matrix(0.94791667,-0.88643861,0,1.5104123,2.7894947,19.74431)" />
    <path
       sodipodi:type="arc"
       style="fill:#11ff20;fill-opacity:1;stroke:#f9f616;stroke-width:0.83573222;stroke-opacity:1"
       id="path4477-3-4"
       sodipodi:cx="10.808632"
       sodipodi:cy="16.129686"
       sodipodi:rx="0.80812204"
       sodipodi:ry="0.75761443"
       d="m 11.616754,16.129686 a 0.80812204,0.75761443 0 1 1 -1.616244,0 0.80812204,0.75761443 0 1 1 1.616244,0 z"
       transform="matrix(0.94791667,-0.88643861,0,1.5104123,25.483203,-1.4775774)" />
    <path
       sodipodi:type="arc"
       style="fill:#11ff20;fill-opacity:1;stroke:#f9f616;stroke-width:0.83573222;stroke-opacity:1"
       id="path4477-72-1"
       sodipodi:cx="10.808632"
       sodipodi:cy="16.129686"
       sodipodi:rx="0.80812204"
       sodipodi:ry="0.75761443"
       d="m 11.616754,16.129686 a 0.80812204,0.75761443 0 1 1 -1.616244,0 0.80812204,0.75761443 0 1 1 1.616244,0 z"
       transform="matrix(0.94791667,-0.88643861,0,1.5104123,19.450697,4.3162588)" />
    <path
       sodipodi:type="arc"
       style="fill:#11ff20;fill-opacity:1;stroke:#f9f616;stroke-width:0.83573222;stroke-opacity:1"
       id="path4477-6-2"
       sodipodi:cx="10.808632"
       sodipodi:cy="16.129686"
       sodipodi:rx="0.80812204"
       sodipodi:ry="0.75761443"
       d="m 11.616754,16.129686 a 0.80812204,0.75761443 0 1 1 -1.616244,0 0.80812204,0.75761443 0 1 1 1.616244,0 z"
       transform="matrix(0.94791667,-0.88643861,0,1.5104123,14.088472,9.4832857)" />
    <path
       sodipodi:type="arc"
       style="fill:#11ff20;fill-opacity:1;stroke:#f9f616;stroke-width:0.83573222;stroke-opacity:1"
       id="path4477-01-0"
       sodipodi:cx="10.808632"
       sodipodi:cy="16.129686"
       sodipodi:rx="0.80812204"
       sodipodi:ry="0.75761443"
       d="m 11.616754,16.129686 a 0.80812204,0.75761443 0 1 1 -1.616244,0 0.80812204,0.75761443 0 1 1 1.616244,0 z"
       transform="matrix(0.94791667,-0.88643861,0,1.5104123,8.6304918,14.129559)" />
    <path
       style="fill:none;stroke:#000000;stroke-width:0.99999982px;stroke-linecap:butt;stroke-linejoin:miter;stroke-opacity:1"
       d="M 6.6488316,39.006294 6.7257016,5.0383037"
       id="path4475-0"
       inkscape:connector-curvature="0" />
    <path
       sodipodi:type="arc"
       style="fill:#11ff20;fill-opacity:1;stroke:#f9f616;stroke-width:0.96963793;stroke-opacity:1"
       id="path4477-0-1"
       sodipodi:cx="10.808632"
       sodipodi:cy="16.129686"
       sodipodi:rx="0.80812204"
       sodipodi:ry="0.75761443"
       d="m 11.616754,16.129686 a 0.80812204,0.75761443 0 1 1 -1.616244,0 0.80812204,0.75761443 0 1 1 1.616244,0 z"
       transform="matrix(0.00430431,-0.91372231,1.1534669,2.2436739,-11.83744,-21.308285)" />
    <path
       sodipodi:type="arc"
       style="fill:#11ff20;fill-opacity:1;stroke:#f9f616;stroke-width:0.96963793;stroke-opacity:1"
       id="path4477-9-4"
       sodipodi:cx="10.808632"
       sodipodi:cy="16.129686"
       sodipodi:rx="0.80812204"
       sodipodi:ry="0.75761443"
       d="m 11.616754,16.129686 a 0.80812204,0.75761443 0 1 1 -1.616244,0 0.80812204,0.75761443 0 1 1 1.616244,0 z"
       transform="matrix(0.00430431,-0.91372231,1.1534669,2.2436739,-11.967011,6.1970826)" />
    <path
       sodipodi:type="arc"
       style="fill:#11ff20;fill-opacity:1;stroke:#f9f616;stroke-width:0.96963793;stroke-opacity:1"
       id="path4477-3-6"
       sodipodi:cx="10.808632"
       sodipodi:cy="16.129686"
       sodipodi:rx="0.80812204"
       sodipodi:ry="0.75761443"
       d="m 11.616754,16.129686 a 0.80812204,0.75761443 0 1 1 -1.616244,0 0.80812204,0.75761443 0 1 1 1.616244,0 z"
       transform="matrix(0.00430431,-0.91372231,1.1534669,2.2436739,-11.863963,-15.677992)" />
    <path
       sodipodi:type="arc"
       style="fill:#11ff20;fill-opacity:1;stroke:#f9f616;stroke-width:0.96963793;stroke-opacity:1"
       id="path4477-72-0"
       sodipodi:cx="10.808632"
       sodipodi:cy="16.129686"
       sodipodi:rx="0.80812204"
       sodipodi:ry="0.75761443"
       d="m 11.616754,16.129686 a 0.80812204,0.75761443 0 1 1 -1.616244,0 0.80812204,0.75761443 0 1 1 1.616244,0 z"
       transform="matrix(0.00430431,-0.91372231,1.1534669,2.2436739,-11.774838,-9.6364522)" />
    <path
       sodipodi:type="arc"
       style="fill:#11ff20;fill-opacity:1;stroke:#f9f616;stroke-width:0.96963793;stroke-opacity:1"
       id="path4477-6-7"
       sodipodi:cx="10.808632"
       sodipodi:cy="16.129686"
       sodipodi:rx="0.80812204"
       sodipodi:ry="0.75761443"
       d="m 11.616754,16.129686 a 0.80812204,0.75761443 0 1 1 -1.616244,0 0.80812204,0.75761443 0 1 1 1.616244,0 z"
       transform="matrix(0.00430431,-0.91372231,1.1534669,2.2436739,-11.682669,-4.2410145)" />
    <path
       sodipodi:type="arc"
       style="fill:#11ff20;fill-opacity:1;stroke:#f9f616;stroke-width:0.96963793;stroke-opacity:1"
       id="path4477-01-1"
       sodipodi:cx="10.808632"
       sodipodi:cy="16.129686"
       sodipodi:rx="0.80812204"
       sodipodi:ry="0.75761443"
       d="m 11.616754,16.129686 a 0.80812204,0.75761443 0 1 1 -1.616244,0 0.80812204,0.75761443 0 1 1 1.616244,0 z"
       transform="matrix(0.00430431,-0.91372231,1.1534669,2.2436739,-12.057006,0.34014308)" />
  </g>
</svg>
