<?xml version="1.0" encoding="UTF-8" standalone="no"?>
<!-- Created with Inkscape (http://www.inkscape.org/) -->

<svg
   xmlns:dc="http://purl.org/dc/elements/1.1/"
   xmlns:cc="http://creativecommons.org/ns#"
   xmlns:rdf="http://www.w3.org/1999/02/22-rdf-syntax-ns#"
   xmlns:svg="http://www.w3.org/2000/svg"
   xmlns="http://www.w3.org/2000/svg"
   xmlns:sodipodi="http://sodipodi.sourceforge.net/DTD/sodipodi-0.dtd"
   xmlns:inkscape="http://www.inkscape.org/namespaces/inkscape"
   width="48px"
   height="48px"
   id="svg4467"
   version="1.1"
   inkscape:version="0.48.2 r9819"
   sodipodi:docname="viewtright.svg">
  <defs
     id="defs4469" />
  <sodipodi:namedview
     id="base"
     pagecolor="#ffffff"
     bordercolor="#666666"
     borderopacity="1.0"
     inkscape:pageopacity="0.0"
     inkscape:pageshadow="2"
     inkscape:zoom="9.8994949"
     inkscape:cx="24"
     inkscape:cy="26.857143"
     inkscape:current-layer="layer1"
     showgrid="true"
     inkscape:grid-bbox="true"
     inkscape:document-units="px"
     inkscape:window-width="1440"
     inkscape:window-height="838"
     inkscape:window-x="-8"
     inkscape:window-y="-8"
     inkscape:window-maximized="1" />
  <metadata
     id="metadata4472">
    <rdf:RDF>
      <cc:Work
         rdf:about="">
        <dc:format>image/svg+xml</dc:format>
        <dc:type
           rdf:resource="http://purl.org/dc/dcmitype/StillImage" />
        <dc:title></dc:title>
      </cc:Work>
    </rdf:RDF>
  </metadata>
  <g
     id="layer1"
     inkscape:label="Layer 1"
     inkscape:groupmode="layer">
    <path
       style="fill:none;stroke:#000000;stroke-width:1px;stroke-linecap:butt;stroke-linejoin:miter;stroke-opacity:1"
       d="M 6.1132704,25.166135 43.113271,25.094707"
       id="path4475"
       inkscape:connector-curvature="0" />
    <path
       sodipodi:type="arc"
       style="fill:#11ff20;fill-opacity:1;stroke:#f9f616;stroke-opacity:1"
       id="path4477"
       sodipodi:cx="10.808632"
       sodipodi:cy="16.129686"
       sodipodi:rx="0.80812204"
       sodipodi:ry="0.75761443"
       d="m 11.616754,16.129686 a 0.80812204,0.75761443 0 1 1 -1.616244,0 0.80812204,0.75761443 0 1 1 1.616244,0 z"
       transform="translate(-4.4446712,8.7883271)" />
    <path
       sodipodi:type="arc"
       style="fill:#11ff20;fill-opacity:1;stroke:#f9f616;stroke-opacity:1"
       id="path4477-0"
       sodipodi:cx="10.808632"
       sodipodi:cy="16.129686"
       sodipodi:rx="0.80812204"
       sodipodi:ry="0.75761443"
       d="m 11.616754,16.129686 a 0.80812204,0.75761443 0 1 1 -1.616244,0 0.80812204,0.75761443 0 1 1 1.616244,0 z"
       transform="translate(32.526912,9.0408661)" />
    <path
       sodipodi:type="arc"
       style="fill:#11ff20;fill-opacity:1;stroke:#f9f616;stroke-opacity:1"
       id="path4477-9"
       sodipodi:cx="10.808632"
       sodipodi:cy="16.129686"
       sodipodi:rx="0.80812204"
       sodipodi:ry="0.75761443"
       d="m 11.616754,16.129686 a 0.80812204,0.75761443 0 1 1 -1.616244,0 0.80812204,0.75761443 0 1 1 1.616244,0 z"
       transform="translate(2.4243663,9.0408661)" />
    <path
       sodipodi:type="arc"
       style="fill:#11ff20;fill-opacity:1;stroke:#f9f616;stroke-opacity:1"
       id="path4477-3"
       sodipodi:cx="10.808632"
       sodipodi:cy="16.129686"
       sodipodi:rx="0.80812204"
       sodipodi:ry="0.75761443"
       d="m 11.616754,16.129686 a 0.80812204,0.75761443 0 1 1 -1.616244,0 0.80812204,0.75761443 0 1 1 1.616244,0 z"
       transform="translate(26.364982,9.0408662)" />
    <path
       sodipodi:type="arc"
       style="fill:#11ff20;fill-opacity:1;stroke:#f9f616;stroke-opacity:1"
       id="path4477-72"
       sodipodi:cx="10.808632"
       sodipodi:cy="16.129686"
       sodipodi:rx="0.80812204"
       sodipodi:ry="0.75761443"
       d="m 11.616754,16.129686 a 0.80812204,0.75761443 0 1 1 -1.616244,0 0.80812204,0.75761443 0 1 1 1.616244,0 z"
       transform="translate(20.00102,9.1418813)" />
    <path
       sodipodi:type="arc"
       style="fill:#11ff20;fill-opacity:1;stroke:#f9f616;stroke-opacity:1"
       id="path4477-6"
       sodipodi:cx="10.808632"
       sodipodi:cy="16.129686"
       sodipodi:rx="0.80812204"
       sodipodi:ry="0.75761443"
       d="m 11.616754,16.129686 a 0.80812204,0.75761443 0 1 1 -1.616244,0 0.80812204,0.75761443 0 1 1 1.616244,0 z"
       transform="translate(14.344166,9.2428967)" />
    <path
       sodipodi:type="arc"
       style="fill:#11ff20;fill-opacity:1;stroke:#f9f616;stroke-opacity:1"
       id="path4477-01"
       sodipodi:cx="10.808632"
       sodipodi:cy="16.129686"
       sodipodi:rx="0.80812204"
       sodipodi:ry="0.75761443"
       d="m 11.616754,16.129686 a 0.80812204,0.75761443 0 1 1 -1.616244,0 0.80812204,0.75761443 0 1 1 1.616244,0 z"
       transform="translate(8.5862971,8.9398508)" />
    <path
       sodipodi:type="star"
       style="fill:#11ff20;fill-opacity:1;stroke:#f9f616;stroke-width:0.9320479;stroke-opacity:1"
       id="path4539"
       sodipodi:sides="3"
       sodipodi:cx="19.697975"
       sodipodi:cy="8.5030355"
       sodipodi:r1="4.348352"
       sodipodi:r2="2.0800314"
       sodipodi:arg1="0.53643545"
       sodipodi:arg2="1.5836331"
       inkscape:flatsided="true"
       inkscape:rounded="0"
       inkscape:randomized="0"
       d="m 23.43554,10.725371 -7.530946,-0.09668 3.849198,-6.4736522 z"
       inkscape:transform-center-x="3.1955934"
       inkscape:transform-center-y="6.4578431"
       transform="matrix(0.0317382,1.0528691,-1.0919057,0.04707373,15.988131,-4.5153971)" />
  </g>
</svg>
